<?xml version="1.0" encoding="UTF-8" standalone="no"?>
<!DOCTYPE svg PUBLIC "-//W3C//DTD SVG 1.1//EN"
 "http://www.w3.org/Graphics/SVG/1.1/DTD/svg11.dtd">
<!-- Generated by graphviz version 2.29.0 (20120110.1522)
 -->
<!-- Title: G Pages: 1 -->
<svg width="154pt" height="2077pt"
 viewBox="0.00 0.00 154.00 2077.00" xmlns="http://www.w3.org/2000/svg" xmlns:xlink="http://www.w3.org/1999/xlink">
<g id="graph1" class="graph" transform="scale(1 1) rotate(0) translate(4 2073)">
<title>G</title>
<polygon fill="blue" stroke="blue" points="-4,5 -4,-2073 151,-2073 151,5 -4,5"/>
<g id="graph2" class="cluster"><title>cluster_1</title>
<polygon fill="blue" stroke="black" points="8,-8 8,-2061 138,-2061 138,-8 8,-8"/>
<text text-anchor="middle" x="73" y="-2045.8" font-family="Times,serif" font-size="14.00" fill="white">Shape Variations</text>
</g>
<!-- n27 -->
<g id="node2" class="node"><title>n27</title>
<defs>
<linearGradient id="l_0" gradientUnits="userSpaceOnUse" x1="46" y1="-34" x2="100" y2="-34" >
<stop offset="0" style="stop-color:bisque;stop-opacity:1.;"/>
<stop offset="1" style="stop-color:brown;stop-opacity:1.;"/>
</linearGradient>
</defs>
<polygon fill="url(#l_0)" points="100,-52 46,-52 46,-16 100,-16 100,-52"/>
<text text-anchor="middle" x="73" y="-30.3" font-family="Times,serif" font-size="14.00">n27 &#160;</text>
</g>
<!-- n26 -->
<g id="node3" class="node"><title>n26</title>
<defs>
<linearGradient id="l_1" gradientUnits="userSpaceOnUse" x1="44.6045" y1="-106" x2="101.396" y2="-106" >
<stop offset="0" style="stop-color:bisque;stop-opacity:1.;"/>
<stop offset="1" style="stop-color:brown;stop-opacity:1.;"/>
</linearGradient>
</defs>
<ellipse fill="url(#l_1)" cx="73" cy="-106" rx="28.3955" ry="18"/>
<text text-anchor="middle" x="73" y="-102.3" font-family="Times,serif" font-size="14.00">n26 &#160;</text>
</g>
<!-- n26&#45;&gt;n27 -->
<g id="edge28" class="edge"><title>n26&#45;&gt;n27</title>
<path fill="none" stroke="black" d="M73,-87.6966C73,-79.9827 73,-70.7125 73,-62.1124"/>
<polygon fill="black" stroke="black" points="76.5001,-62.1043 73,-52.1043 69.5001,-62.1044 76.5001,-62.1043"/>
</g>
<!-- n25 -->
<g id="node4" class="node"><title>n25</title>
<defs>
<linearGradient id="l_2" gradientUnits="userSpaceOnUse" x1="42.8179" y1="-178" x2="103.182" y2="-178" >
<stop offset="0" style="stop-color:bisque;stop-opacity:1.;"/>
<stop offset="1" style="stop-color:brown;stop-opacity:1.;"/>
</linearGradient>
</defs>
<polygon fill="url(#l_2)" points="75.793,-160.049 77.6421,-160.148 79.4722,-160.295 81.2756,-160.491 83.0451,-160.735 84.7737,-161.027 86.4544,-161.364 88.0808,-161.748 89.6466,-162.176 91.1461,-162.647 92.5738,-163.161 93.9249,-163.715 95.1946,-164.308 96.3792,-164.939 97.4749,-165.605 98.479,-166.306 99.3887,-167.039 100.202,-167.801 100.918,-168.592 101.536,-169.408 102.054,-170.248 102.474,-171.109 102.795,-171.989 103.019,-172.886 103.148,-173.797 103.182,-174.719 103.125,-175.65 102.979,-176.587 102.747,-177.529 102.432,-178.471 102.038,-179.413 101.568,-180.35 101.026,-181.281 100.416,-182.203 99.7425,-183.114 99.0089,-184.011 98.2195,-184.891 97.3785,-185.752 96.4899,-186.592 95.5577,-187.408 94.5856,-188.199 93.5774,-188.961 92.5367,-189.694 91.4669,-190.395 90.3711,-191.061 89.2524,-191.692 88.1135,-192.285 86.9571,-192.839 85.7856,-193.353 84.6009,-193.824 83.4053,-194.252 82.2003,-194.636 80.9875,-194.973 79.7684,-195.265 78.5443,-195.509 77.3161,-195.705 76.085,-195.852 74.8518,-195.951 73.6174,-196 72.3826,-196 71.1482,-195.951 69.915,-195.852 68.6839,-195.705 67.4557,-195.509 66.2316,-195.265 65.0125,-194.973 63.7997,-194.636 62.5947,-194.252 61.3991,-193.824 60.2144,-193.353 59.0429,-192.839 57.8865,-192.285 56.7476,-191.692 55.6289,-191.061 54.5331,-190.395 53.4633,-189.694 52.4226,-188.961 51.4144,-188.199 50.4423,-187.408 49.5101,-186.592 48.6215,-185.752 47.7805,-184.891 46.9911,-184.011 46.2575,-183.114 45.5837,-182.203 44.9739,-181.281 44.432,-180.35 43.9621,-179.413 43.5678,-178.471 43.2529,-177.529 43.0209,-176.587 42.8749,-175.65 42.8179,-174.719 42.8524,-173.797 42.9808,-172.886 43.2049,-171.989 43.5263,-171.109 43.9459,-170.248 44.4644,-169.408 45.0818,-168.592 45.7977,-167.801 46.6113,-167.039 47.521,-166.306 48.5251,-165.605 49.6208,-164.939 50.8054,-164.308 52.0751,-163.715 53.4262,-163.161 54.8539,-162.647 56.3534,-162.176 57.9192,-161.748 59.5456,-161.364 61.2263,-161.027 62.9549,-160.735 64.7244,-160.491 66.5278,-160.295 68.3579,-160.148 70.207,-160.049 72.0677,-160 73.9323,-160 75.793,-160.049"/>
<text text-anchor="middle" x="73" y="-174.3" font-family="Times,serif" font-size="14.00">n25 &#160;</text>
</g>
<!-- n25&#45;&gt;n26 -->
<g id="edge27" class="edge"><title>n25&#45;&gt;n26</title>
<path fill="none" stroke="black" d="M73,-159.697C73,-151.983 73,-142.712 73,-134.112"/>
<polygon fill="black" stroke="black" points="76.5001,-134.104 73,-124.104 69.5001,-134.104 76.5001,-134.104"/>
</g>
<!-- n24 -->
<g id="node5" class="node"><title>n24</title>
<defs>
<linearGradient id="l_3" gradientUnits="userSpaceOnUse" x1="32.8352" y1="-250" x2="113.165" y2="-250" >
<stop offset="0" style="stop-color:bisque;stop-opacity:1.;"/>
<stop offset="1" style="stop-color:brown;stop-opacity:1.;"/>
</linearGradient>
</defs>
<polygon fill="url(#l_3)" points="96.4569,-268 49.5431,-268 32.8352,-232 113.165,-232 96.4569,-268"/>
<text text-anchor="middle" x="73" y="-246.3" font-family="Times,serif" font-size="14.00">n24 &#160;</text>
</g>
<!-- n24&#45;&gt;n25 -->
<g id="edge26" class="edge"><title>n24&#45;&gt;n25</title>
<path fill="none" stroke="black" d="M73,-231.697C73,-223.983 73,-214.712 73,-206.112"/>
<polygon fill="black" stroke="black" points="76.5001,-206.104 73,-196.104 69.5001,-206.104 76.5001,-206.104"/>
</g>
<!-- n23 -->
<g id="node6" class="node"><title>n23</title>
<defs>
<linearGradient id="l_4" gradientUnits="userSpaceOnUse" x1="31.6051" y1="-322" x2="114.395" y2="-322" >
<stop offset="0" style="stop-color:bisque;stop-opacity:1.;"/>
<stop offset="1" style="stop-color:brown;stop-opacity:1.;"/>
</linearGradient>
</defs>
<polygon fill="url(#l_4)" points="114.395,-340 48.5449,-340 31.6051,-304 97.4551,-304 114.395,-340"/>
<text text-anchor="middle" x="73" y="-318.3" font-family="Times,serif" font-size="14.00">n23 &#160;</text>
</g>
<!-- n23&#45;&gt;n24 -->
<g id="edge25" class="edge"><title>n23&#45;&gt;n24</title>
<path fill="none" stroke="black" d="M73,-303.697C73,-295.983 73,-286.712 73,-278.112"/>
<polygon fill="black" stroke="black" points="76.5001,-278.104 73,-268.104 69.5001,-278.104 76.5001,-278.104"/>
</g>
<!-- n22 -->
<g id="node7" class="node"><title>n22</title>
<defs>
<linearGradient id="l_5" gradientUnits="userSpaceOnUse" x1="37.976" y1="-395.719" x2="108.024" y2="-395.719" >
<stop offset="0" style="stop-color:bisque;stop-opacity:1.;"/>
<stop offset="1" style="stop-color:brown;stop-opacity:1.;"/>
</linearGradient>
</defs>
<polygon fill="url(#l_5)" points="108.024,-399.562 73,-412 37.976,-399.562 38.0087,-379.438 107.991,-379.438 108.024,-399.562"/>
<text text-anchor="middle" x="73" y="-390.3" font-family="Times,serif" font-size="14.00">n22 &#160;</text>
</g>
<!-- n22&#45;&gt;n23 -->
<g id="edge24" class="edge"><title>n22&#45;&gt;n23</title>
<path fill="none" stroke="black" d="M73,-379.17C73,-370.919 73,-360.153 73,-350.256"/>
<polygon fill="black" stroke="black" points="76.5001,-350.019 73,-340.019 69.5001,-350.019 76.5001,-350.019"/>
</g>
<!-- n21 -->
<g id="node8" class="node"><title>n21</title>
<defs>
<linearGradient id="l_6" gradientUnits="userSpaceOnUse" x1="42.5687" y1="-466" x2="103.431" y2="-466" >
<stop offset="0" style="stop-color:bisque;stop-opacity:1.;"/>
<stop offset="1" style="stop-color:brown;stop-opacity:1.;"/>
</linearGradient>
</defs>
<polygon fill="url(#l_6)" points="103.431,-458.544 103.431,-473.456 85.6051,-484 60.3949,-484 42.5687,-473.456 42.5687,-458.544 60.3949,-448 85.6051,-448 103.431,-458.544"/>
<text text-anchor="middle" x="73" y="-462.3" font-family="Times,serif" font-size="14.00">n21 &#160;</text>
</g>
<!-- n21&#45;&gt;n22 -->
<g id="edge23" class="edge"><title>n21&#45;&gt;n22</title>
<path fill="none" stroke="black" d="M73,-447.697C73,-439.983 73,-430.712 73,-422.112"/>
<polygon fill="black" stroke="black" points="76.5001,-422.104 73,-412.104 69.5001,-422.104 76.5001,-422.104"/>
</g>
<!-- n20 -->
<g id="node9" class="node"><title>n20</title>
<defs>
<linearGradient id="l_7" gradientUnits="userSpaceOnUse" x1="46" y1="-538" x2="100" y2="-538" >
<stop offset="0" style="stop-color:bisque;stop-opacity:1.;"/>
<stop offset="1" style="stop-color:brown;stop-opacity:1.;"/>
</linearGradient>
</defs>
<polygon fill="url(#l_7)" points="100,-556 46,-556 46,-520 100,-520 100,-556"/>
<text text-anchor="middle" x="73" y="-534.3" font-family="Times,serif" font-size="14.00">n20 &#160;</text>
</g>
<!-- n20&#45;&gt;n21 -->
<g id="edge22" class="edge"><title>n20&#45;&gt;n21</title>
<path fill="none" stroke="black" d="M73,-519.697C73,-511.983 73,-502.712 73,-494.112"/>
<polygon fill="black" stroke="black" points="76.5001,-494.104 73,-484.104 69.5001,-494.104 76.5001,-494.104"/>
</g>
<!-- n19 -->
<g id="node10" class="node"><title>n19</title>
<defs>
<linearGradient id="l_8" gradientUnits="userSpaceOnUse" x1="44.6045" y1="-621" x2="101.396" y2="-621" >
<stop offset="0" style="stop-color:bisque;stop-opacity:1.;"/>
<stop offset="1" style="stop-color:brown;stop-opacity:1.;"/>
</linearGradient>
</defs>
<ellipse fill="url(#l_8)" cx="73" cy="-621" rx="28.3955" ry="28.6953"/>
<text text-anchor="middle" x="73" y="-617.3" font-family="Times,serif" font-size="14.00">n19 &#160;</text>
</g>
<!-- n19&#45;&gt;n20 -->
<g id="edge21" class="edge"><title>n19&#45;&gt;n20</title>
<path fill="none" stroke="black" d="M73,-592.124C73,-583.851 73,-574.797 73,-566.546"/>
<polygon fill="black" stroke="black" points="76.5001,-566.293 73,-556.293 69.5001,-566.293 76.5001,-566.293"/>
</g>
<!-- n18 -->
<g id="node11" class="node"><title>n18</title>
<defs>
<linearGradient id="l_9" gradientUnits="userSpaceOnUse" x1="32.8352" y1="-704" x2="113.165" y2="-704" >
<stop offset="0" style="stop-color:bisque;stop-opacity:1.;"/>
<stop offset="1" style="stop-color:brown;stop-opacity:1.;"/>
</linearGradient>
</defs>
<polygon fill="url(#l_9)" points="73,-722 32.8352,-704 73,-686 113.165,-704 73,-722"/>
<text text-anchor="middle" x="73" y="-700.3" font-family="Times,serif" font-size="14.00">n18 &#160;</text>
</g>
<!-- n18&#45;&gt;n19 -->
<g id="edge20" class="edge"><title>n18&#45;&gt;n19</title>
<path fill="none" stroke="black" d="M73,-685.822C73,-678.197 73,-668.898 73,-659.783"/>
<polygon fill="black" stroke="black" points="76.5001,-659.67 73,-649.67 69.5001,-659.67 76.5001,-659.67"/>
</g>
<!-- n17 -->
<g id="node12" class="node"><title>n17</title>
<defs>
<linearGradient id="l_10" gradientUnits="userSpaceOnUse" x1="44.6045" y1="-776" x2="101.396" y2="-776" >
<stop offset="0" style="stop-color:bisque;stop-opacity:1.;"/>
<stop offset="1" style="stop-color:brown;stop-opacity:1.;"/>
</linearGradient>
</defs>
<ellipse fill="url(#l_10)" cx="73" cy="-776" rx="28.3955" ry="18"/>
<text text-anchor="middle" x="73" y="-772.3" font-family="Times,serif" font-size="14.00">n17 &#160;</text>
</g>
<!-- n17&#45;&gt;n18 -->
<g id="edge19" class="edge"><title>n17&#45;&gt;n18</title>
<path fill="none" stroke="black" d="M73,-757.697C73,-749.983 73,-740.712 73,-732.112"/>
<polygon fill="black" stroke="black" points="76.5001,-732.104 73,-722.104 69.5001,-732.104 76.5001,-732.104"/>
</g>
<!-- n16 -->
<g id="node13" class="node"><title>n16</title>
<defs>
<linearGradient id="l_11" gradientUnits="userSpaceOnUse" x1="39.9677" y1="-848" x2="106.032" y2="-848" >
<stop offset="0" style="stop-color:bisque;stop-opacity:1.;"/>
<stop offset="1" style="stop-color:brown;stop-opacity:1.;"/>
</linearGradient>
</defs>
<polygon fill="url(#l_11)" points="106.032,-848 89.5161,-866 56.4839,-866 39.9677,-848 56.4839,-830 89.5161,-830 106.032,-848"/>
<text text-anchor="middle" x="73" y="-844.3" font-family="Times,serif" font-size="14.00">n16 &#160;</text>
</g>
<!-- n16&#45;&gt;n17 -->
<g id="edge18" class="edge"><title>n16&#45;&gt;n17</title>
<path fill="none" stroke="black" d="M73,-829.697C73,-821.983 73,-812.712 73,-804.112"/>
<polygon fill="black" stroke="black" points="76.5001,-804.104 73,-794.104 69.5001,-804.104 76.5001,-804.104"/>
</g>
<!-- n15 -->
<g id="node14" class="node"><title>n15</title>
<defs>
<linearGradient id="l_12" gradientUnits="userSpaceOnUse" x1="15.7073" y1="-919.25" x2="130.293" y2="-919.25" >
<stop offset="0" style="stop-color:bisque;stop-opacity:1.;"/>
<stop offset="1" style="stop-color:brown;stop-opacity:1.;"/>
</linearGradient>
</defs>
<polygon fill="url(#l_12)" points="73,-902 130.293,-936.5 15.7073,-936.5 73,-902"/>
<text text-anchor="middle" x="73" y="-921.3" font-family="Times,serif" font-size="14.00">n15 &#160;</text>
</g>
<!-- n15&#45;&gt;n16 -->
<g id="edge17" class="edge"><title>n15&#45;&gt;n16</title>
<path fill="none" stroke="black" d="M73,-901.903C73,-893.882 73,-884.724 73,-876.307"/>
<polygon fill="black" stroke="black" points="76.5001,-876.183 73,-866.183 69.5001,-876.183 76.5001,-876.183"/>
</g>
<!-- n14 -->
<g id="node15" class="node"><title>n14</title>
<defs>
<linearGradient id="l_13" gradientUnits="userSpaceOnUse" x1="37.976" y1="-1003.72" x2="108.024" y2="-1003.72" >
<stop offset="0" style="stop-color:bisque;stop-opacity:1.;"/>
<stop offset="1" style="stop-color:brown;stop-opacity:1.;"/>
</linearGradient>
</defs>
<polygon fill="url(#l_13)" points="108.024,-1007.56 73,-1020 37.976,-1007.56 51.354,-987.438 94.646,-987.438 108.024,-1007.56"/>
<text text-anchor="middle" x="73" y="-998.3" font-family="Times,serif" font-size="14.00">n14 &#160;</text>
</g>
<!-- n14&#45;&gt;n15 -->
<g id="edge16" class="edge"><title>n14&#45;&gt;n15</title>
<path fill="none" stroke="black" d="M73,-987.244C73,-975.992 73,-959.896 73,-947.029"/>
<polygon fill="black" stroke="black" points="76.5001,-946.756 73,-936.756 69.5001,-946.756 76.5001,-946.756"/>
</g>
<!-- n13 -->
<g id="node16" class="node"><title>n13</title>
<defs>
<linearGradient id="l_14" gradientUnits="userSpaceOnUse" x1="46" y1="-1074" x2="100" y2="-1074" >
<stop offset="0" style="stop-color:bisque;stop-opacity:1.;"/>
<stop offset="1" style="stop-color:brown;stop-opacity:1.;"/>
</linearGradient>
</defs>
<polygon fill="url(#l_14)" points="100,-1092 46,-1092 46,-1056 100,-1056 100,-1092"/>
<text text-anchor="middle" x="73" y="-1070.3" font-family="Times,serif" font-size="14.00">n13 &#160;</text>
</g>
<!-- n13&#45;&gt;n14 -->
<g id="edge15" class="edge"><title>n13&#45;&gt;n14</title>
<path fill="none" stroke="black" d="M73,-1055.7C73,-1047.98 73,-1038.71 73,-1030.11"/>
<polygon fill="black" stroke="black" points="76.5001,-1030.1 73,-1020.1 69.5001,-1030.1 76.5001,-1030.1"/>
</g>
<!-- n12 -->
<g id="node17" class="node"><title>n12</title>
<defs>
<linearGradient id="l_15" gradientUnits="userSpaceOnUse" x1="41.3898" y1="-1146.89" x2="104.61" y2="-1146.89" >
<stop offset="0" style="stop-color:bisque;stop-opacity:1.;"/>
<stop offset="1" style="stop-color:brown;stop-opacity:1.;"/>
</linearGradient>
</defs>
<polygon fill="url(#l_15)" points="104.61,-1141.99 98.3494,-1157.22 73,-1164 47.6506,-1157.22 41.3898,-1141.99 58.9321,-1129.78 87.0679,-1129.78 104.61,-1141.99"/>
<text text-anchor="middle" x="73" y="-1142.3" font-family="Times,serif" font-size="14.00">n12 &#160;</text>
</g>
<!-- n12&#45;&gt;n13 -->
<g id="edge14" class="edge"><title>n12&#45;&gt;n13</title>
<path fill="none" stroke="black" d="M73,-1129.46C73,-1121.59 73,-1111.79 73,-1102.68"/>
<polygon fill="black" stroke="black" points="76.5001,-1102.46 73,-1092.46 69.5001,-1102.46 76.5001,-1102.46"/>
</g>
<!-- n11 -->
<g id="node18" class="node"><title>n11</title>
<defs>
<linearGradient id="l_16" gradientUnits="userSpaceOnUse" x1="15.7073" y1="-1228.75" x2="130.293" y2="-1228.75" >
<stop offset="0" style="stop-color:bisque;stop-opacity:1.;"/>
<stop offset="1" style="stop-color:brown;stop-opacity:1.;"/>
</linearGradient>
</defs>
<polygon fill="url(#l_16)" points="73,-1246 15.7073,-1211.5 130.293,-1211.5 73,-1246"/>
<text text-anchor="middle" x="73" y="-1219.3" font-family="Times,serif" font-size="14.00">n11 &#160;</text>
</g>
<!-- n11&#45;&gt;n12 -->
<g id="edge13" class="edge"><title>n11&#45;&gt;n12</title>
<path fill="none" stroke="black" d="M73,-1211.25C73,-1201.63 73,-1187.11 73,-1174.31"/>
<polygon fill="black" stroke="black" points="76.5001,-1174.1 73,-1164.1 69.5001,-1174.1 76.5001,-1174.1"/>
</g>
<!-- n10 -->
<g id="node19" class="node"><title>n10</title>
<defs>
<linearGradient id="l_17" gradientUnits="userSpaceOnUse" x1="46" y1="-1300" x2="100" y2="-1300" >
<stop offset="0" style="stop-color:bisque;stop-opacity:1.;"/>
<stop offset="1" style="stop-color:brown;stop-opacity:1.;"/>
</linearGradient>
</defs>
<polygon fill="url(#l_17)" points="100,-1318 46,-1318 46,-1282 100,-1282 100,-1318"/>
<text text-anchor="middle" x="73" y="-1296.3" font-family="Times,serif" font-size="14.00">n10 &#160;</text>
</g>
<!-- n10&#45;&gt;n11 -->
<g id="edge12" class="edge"><title>n10&#45;&gt;n11</title>
<path fill="none" stroke="black" d="M73,-1281.98C73,-1274.34 73,-1265.06 73,-1256.19"/>
<polygon fill="black" stroke="black" points="76.5001,-1256.08 73,-1246.08 69.5001,-1256.08 76.5001,-1256.08"/>
</g>
<!-- n9 -->
<g id="node20" class="node"><title>n9</title>
<defs>
<linearGradient id="l_18" gradientUnits="userSpaceOnUse" x1="54" y1="-1373" x2="92" y2="-1373" >
<stop offset="0" style="stop-color:bisque;stop-opacity:1.;"/>
<stop offset="1" style="stop-color:brown;stop-opacity:1.;"/>
</linearGradient>
</defs>
<polygon fill="url(#l_18)" points="92,-1392 54,-1392 54,-1354 92,-1354 92,-1392"/>
<text text-anchor="middle" x="73" y="-1369.3" font-family="Times,serif" font-size="14.00">n9 &#160;</text>
</g>
<!-- n9&#45;&gt;n10 -->
<g id="edge11" class="edge"><title>n9&#45;&gt;n10</title>
<path fill="none" stroke="black" d="M73,-1353.72C73,-1345.97 73,-1336.79 73,-1328.27"/>
<polygon fill="black" stroke="black" points="76.5001,-1328 73,-1318 69.5001,-1328 76.5001,-1328"/>
</g>
<!-- n8 -->
<g id="node21" class="node"><title>n8</title>
<defs>
<linearGradient id="l_19" gradientUnits="userSpaceOnUse" x1="48.4331" y1="-1457" x2="97.5669" y2="-1457" >
<stop offset="0" style="stop-color:bisque;stop-opacity:1.;"/>
<stop offset="1" style="stop-color:brown;stop-opacity:1.;"/>
</linearGradient>
</defs>
<ellipse fill="url(#l_19)" cx="73" cy="-1457" rx="24.5669" ry="24.8692"/>
<defs>
<linearGradient id="l_20" gradientUnits="userSpaceOnUse" x1="44.4543" y1="-1457" x2="101.546" y2="-1457" >
<stop offset="0" style="stop-color:bisque;stop-opacity:1.;"/>
<stop offset="1" style="stop-color:brown;stop-opacity:1.;"/>
</linearGradient>
</defs>
<ellipse fill="url(#l_20)" cx="73" cy="-1457" rx="28.5457" ry="28.897"/>
<text text-anchor="middle" x="73" y="-1453.3" font-family="Times,serif" font-size="14.00">n8 &#160;</text>
</g>
<!-- n8&#45;&gt;n9 -->
<g id="edge10" class="edge"><title>n8&#45;&gt;n9</title>
<path fill="none" stroke="black" d="M73,-1428.24C73,-1419.88 73,-1410.69 73,-1402.29"/>
<polygon fill="black" stroke="black" points="76.5001,-1402.2 73,-1392.2 69.5001,-1402.2 76.5001,-1402.2"/>
</g>
<!-- n7 -->
<g id="node22" class="node"><title>n7</title>
<defs>
<linearGradient id="l_21" gradientUnits="userSpaceOnUse" x1="46.4355" y1="-1544" x2="99.5645" y2="-1544" >
<stop offset="0" style="stop-color:bisque;stop-opacity:1.;"/>
<stop offset="1" style="stop-color:brown;stop-opacity:1.;"/>
</linearGradient>
</defs>
<polygon fill="url(#l_21)" points="99.5645,-1536.54 99.5645,-1551.46 84.0034,-1562 61.9966,-1562 46.4355,-1551.46 46.4355,-1536.54 61.9966,-1526 84.0034,-1526 99.5645,-1536.54"/>
<defs>
<linearGradient id="l_22" gradientUnits="userSpaceOnUse" x1="42.5" y1="-1544" x2="103.5" y2="-1544" >
<stop offset="0" style="stop-color:bisque;stop-opacity:1.;"/>
<stop offset="1" style="stop-color:brown;stop-opacity:1.;"/>
</linearGradient>
</defs>
<polygon fill="url(#l_22)" points="103.5,-1534.4 103.5,-1553.6 85.195,-1566 60.805,-1566 42.5,-1553.6 42.5,-1534.4 60.805,-1522 85.195,-1522 103.5,-1534.4"/>
<text text-anchor="middle" x="73" y="-1540.3" font-family="Times,serif" font-size="14.00">n7 &#160;</text>
</g>
<!-- n7&#45;&gt;n8 -->
<g id="edge9" class="edge"><title>n7&#45;&gt;n8</title>
<path fill="none" stroke="black" d="M73,-1521.99C73,-1514.14 73,-1504.97 73,-1496.07"/>
<polygon fill="black" stroke="black" points="76.5001,-1495.83 73,-1485.83 69.5001,-1495.83 76.5001,-1495.83"/>
</g>
<!-- n6 -->
<g id="node23" class="node"><title>n6</title>
<defs>
<linearGradient id="l_23" gradientUnits="userSpaceOnUse" x1="46" y1="-1628" x2="100" y2="-1628" >
<stop offset="0" style="stop-color:bisque;stop-opacity:1.;"/>
<stop offset="1" style="stop-color:brown;stop-opacity:1.;"/>
</linearGradient>
</defs>
<polygon fill="url(#l_23)" points="100,-1620.54 100,-1635.46 84.1838,-1646 61.8162,-1646 46,-1635.46 46,-1620.54 61.8162,-1610 84.1838,-1610 100,-1620.54"/>
<defs>
<linearGradient id="l_24" gradientUnits="userSpaceOnUse" x1="42" y1="-1628" x2="104" y2="-1628" >
<stop offset="0" style="stop-color:bisque;stop-opacity:1.;"/>
<stop offset="1" style="stop-color:brown;stop-opacity:1.;"/>
</linearGradient>
</defs>
<polygon fill="url(#l_24)" points="104,-1618.4 104,-1637.6 85.3949,-1650 60.6051,-1650 42,-1637.6 42,-1618.4 60.6051,-1606 85.3949,-1606 104,-1618.4"/>
<defs>
<linearGradient id="l_25" gradientUnits="userSpaceOnUse" x1="38" y1="-1628" x2="108" y2="-1628" >
<stop offset="0" style="stop-color:bisque;stop-opacity:1.;"/>
<stop offset="1" style="stop-color:brown;stop-opacity:1.;"/>
</linearGradient>
</defs>
<polygon fill="url(#l_25)" points="108,-1616.26 108,-1639.74 86.606,-1654 59.394,-1654 38,-1639.74 38,-1616.26 59.394,-1602 86.606,-1602 108,-1616.26"/>
<text text-anchor="middle" x="73" y="-1624.3" font-family="Times,serif" font-size="14.00">n6 &#160;</text>
</g>
<!-- n6&#45;&gt;n7 -->
<g id="edge8" class="edge"><title>n6&#45;&gt;n7</title>
<path fill="none" stroke="black" d="M73,-1601.95C73,-1593.78 73,-1584.61 73,-1576.05"/>
<polygon fill="black" stroke="black" points="76.5001,-1576.03 73,-1566.03 69.5001,-1576.03 76.5001,-1576.03"/>
</g>
<!-- n5 -->
<g id="node24" class="node"><title>n5</title>
<defs>
<linearGradient id="l_26" gradientUnits="userSpaceOnUse" x1="38.6069" y1="-1708" x2="107.393" y2="-1708" >
<stop offset="0" style="stop-color:bisque;stop-opacity:1.;"/>
<stop offset="1" style="stop-color:brown;stop-opacity:1.;"/>
</linearGradient>
</defs>
<polygon fill="url(#l_26)" points="52.9139,-1690 93.0861,-1690 107.393,-1726 38.6069,-1726 52.9139,-1690"/>
<text text-anchor="middle" x="73" y="-1704.3" font-family="Times,serif" font-size="14.00">n5 &#160;</text>
</g>
<!-- n5&#45;&gt;n6 -->
<g id="edge7" class="edge"><title>n5&#45;&gt;n6</title>
<path fill="none" stroke="black" d="M73,-1689.69C73,-1682.21 73,-1673.16 73,-1664.36"/>
<polygon fill="black" stroke="black" points="76.5001,-1664.26 73,-1654.26 69.5001,-1664.26 76.5001,-1664.26"/>
</g>
<!-- n4 -->
<g id="node25" class="node"><title>n4</title>
<defs>
<linearGradient id="l_27" gradientUnits="userSpaceOnUse" x1="42.708" y1="-1778.28" x2="103.292" y2="-1778.28" >
<stop offset="0" style="stop-color:bisque;stop-opacity:1.;"/>
<stop offset="1" style="stop-color:brown;stop-opacity:1.;"/>
</linearGradient>
</defs>
<polygon fill="url(#l_27)" points="42.708,-1774.44 73,-1762 103.292,-1774.44 103.264,-1794.56 42.7362,-1794.56 42.708,-1774.44"/>
<text text-anchor="middle" x="73" y="-1776.3" font-family="Times,serif" font-size="14.00">n4 &#160;</text>
</g>
<!-- n4&#45;&gt;n5 -->
<g id="edge6" class="edge"><title>n4&#45;&gt;n5</title>
<path fill="none" stroke="black" d="M73,-1761.7C73,-1753.98 73,-1744.71 73,-1736.11"/>
<polygon fill="black" stroke="black" points="76.5001,-1736.1 73,-1726.1 69.5001,-1736.1 76.5001,-1736.1"/>
</g>
<!-- n3 -->
<g id="node26" class="node"><title>n3</title>
<defs>
<linearGradient id="l_28" gradientUnits="userSpaceOnUse" x1="38.6069" y1="-1852" x2="107.393" y2="-1852" >
<stop offset="0" style="stop-color:bisque;stop-opacity:1.;"/>
<stop offset="1" style="stop-color:brown;stop-opacity:1.;"/>
</linearGradient>
</defs>
<polygon fill="url(#l_28)" points="73,-1870 38.6069,-1852 73,-1834 107.393,-1852 73,-1870"/>
<polyline fill="none" stroke="black" points="49.2389,-1857.56 49.2389,-1846.44 "/>
<polyline fill="none" stroke="black" points="62.3681,-1839.56 83.6319,-1839.56 "/>
<polyline fill="none" stroke="black" points="96.7611,-1846.44 96.7611,-1857.56 "/>
<polyline fill="none" stroke="black" points="83.6319,-1864.44 62.3681,-1864.44 "/>
<text text-anchor="middle" x="73" y="-1848.3" font-family="Times,serif" font-size="14.00">n3 &#160;</text>
</g>
<!-- n3&#45;&gt;n4 -->
<g id="edge5" class="edge"><title>n3&#45;&gt;n4</title>
<path fill="none" stroke="black" d="M73,-1833.7C73,-1824.99 73,-1814.3 73,-1804.83"/>
<polygon fill="black" stroke="black" points="76.5001,-1804.82 73,-1794.82 69.5001,-1804.82 76.5001,-1804.82"/>
</g>
<!-- n2 -->
<g id="node27" class="node"><title>n2</title>
<defs>
<linearGradient id="l_29" gradientUnits="userSpaceOnUse" x1="54" y1="-1925" x2="92" y2="-1925" >
<stop offset="0" style="stop-color:bisque;stop-opacity:1.;"/>
<stop offset="1" style="stop-color:brown;stop-opacity:1.;"/>
</linearGradient>
</defs>
<polygon fill="url(#l_29)" points="92,-1944 54,-1944 54,-1906 92,-1906 92,-1944"/>
<polyline fill="none" stroke="black" points="66,-1944 54,-1932 "/>
<polyline fill="none" stroke="black" points="54,-1918 66,-1906 "/>
<polyline fill="none" stroke="black" points="80,-1906 92,-1918 "/>
<polyline fill="none" stroke="black" points="92,-1932 80,-1944 "/>
<text text-anchor="middle" x="73" y="-1921.3" font-family="Times,serif" font-size="14.00">n2 &#160;</text>
</g>
<!-- n2&#45;&gt;n3 -->
<g id="edge4" class="edge"><title>n2&#45;&gt;n3</title>
<path fill="none" stroke="black" d="M73,-1905.72C73,-1897.97 73,-1888.79 73,-1880.27"/>
<polygon fill="black" stroke="black" points="76.5001,-1880 73,-1870 69.5001,-1880 76.5001,-1880"/>
</g>
<!-- n1 -->
<g id="node28" class="node"><title>n1</title>
<defs>
<linearGradient id="l_30" gradientUnits="userSpaceOnUse" x1="48.4545" y1="-2005" x2="97.5455" y2="-2005" >
<stop offset="0" style="stop-color:bisque;stop-opacity:1.;"/>
<stop offset="1" style="stop-color:brown;stop-opacity:1.;"/>
</linearGradient>
</defs>
<ellipse fill="url(#l_30)" cx="73" cy="-2005" rx="24.5455" ry="24.8972"/>
<polyline fill="none" stroke="black" points="88.8736,-2023.52 57.1264,-2023.52 "/>
<polyline fill="none" stroke="black" points="88.8736,-1986.48 57.1264,-1986.48 "/>
<text text-anchor="middle" x="73" y="-2001.3" font-family="Times,serif" font-size="14.00">n1 &#160;</text>
</g>
<!-- n1&#45;&gt;n2 -->
<g id="edge3" class="edge"><title>n1&#45;&gt;n2</title>
<path fill="none" stroke="black" d="M73,-1980.17C73,-1972.11 73,-1963.02 73,-1954.62"/>
<polygon fill="black" stroke="black" points="76.5001,-1954.48 73,-1944.48 69.5001,-1954.48 76.5001,-1954.48"/>
</g>
</g>
</svg>
