<?xml version="1.0" encoding="UTF-8" standalone="no"?>
<?xml-stylesheet href="stylesheet" type="text/css"?>
<!DOCTYPE svg PUBLIC "-//W3C//DTD SVG 1.0//EN"
 "http://www.w3.org/TR/2001/REC-SVG-20010904/DTD/svg10.dtd" [
 <!ATTLIST svg xmlns:xlink CDATA #FIXED "http://www.w3.org/1999/xlink">
]>
<!-- Generated by Graphviz version 2.16 (Sat Nov 10 02:02:40 UTC 2007)
     For user: (ellson) John Ellson -->
<!-- Title: G Pages: 1 -->
<svg width="481pt" height="196pt"
 viewBox="0.00 0.00 481.00 196.00" xmlns="http://www.w3.org/2000/svg" xmlns:xlink="http://www.w3.org/1999/xlink">
<g id="graph0" class="graph" transform="scale(1 1) rotate(0) translate(4 192)">
<title>G</title>
<a xlink:href="http://www.graphviz.org/doc/info/output.html" xlink:title="output">
<polygon style="fill:white;stroke:white;" points="-4,4 -4,-192 477,-192 477,4 -4,4"/>
<text text-anchor="middle" x="236" y="-7.65" style="font-family:Times New Roman;font-size:14.00;">output</text>
</a>
<g id="cluster2" class="cluster"><title>cluster0</title>
<a xlink:href="http://www.graphviz.org/doc/info/arrows.html" xlink:title="arrows">
<polygon style="fill:yellow;stroke:black;" points="88,-33 88,-110 260,-110 260,-33 88,-33"/>
<text text-anchor="middle" x="174" y="-93.65" style="font-family:Times New Roman;font-size:14.00;">arrows</text>
</a>
</g>
<!-- lang -->
<g id="node1" class="node"><title>lang</title>
<a xlink:href="http://www.graphviz.org/doc/info/lang.html" xlink:title="lang">
<ellipse style="fill:none;stroke:black;" cx="211" cy="-170" rx="27" ry="18"/>
<text text-anchor="middle" x="211" y="-165.65" style="font-family:Times New Roman;font-size:14.00;">lang</text>
</a>
</g>
<!-- colors -->
<g id="node2" class="node"><title>colors</title>
<a xlink:href="http://www.graphviz.org/doc/info/output.html" xlink:title="&lt;TABLE&gt;">
<ellipse style="fill:lightblue;stroke:black;" cx="39" cy="-59" rx="39.0416" ry="24.0416"/>
</a>
<a xlink:href="http://www.graphviz.org/doc/info/colors.html" xlink:title="&lt;TABLE&gt;">
<polygon style="fill:none;stroke:black;" points="15,-46 15,-72 63,-72 63,-46 15,-46"/>
<polygon style="fill:green;stroke:green;" points="18,-49 18,-69 60,-69 60,-49 18,-49"/>
<polygon style="fill:none;stroke:black;" points="18,-49 18,-69 60,-69 60,-49 18,-49"/>
<text text-anchor="middle" x="39" y="-55.7333" style="font-family:Times New Roman;font-size:14.00;">colors</text>
</a>
<a xlink:href="http://www.graphviz.org/doc/info/output.html" xlink:title="&lt;TABLE&gt;">
</a>
</g>
<!-- lang&#45;&gt;colors -->
<g id="edge5" class="edge"><title>lang&#45;&gt;colors</title>
<a xlink:href="lang&#45;&gt;colors" xlink:title="self">
<path style="fill:none;stroke:black;" d="M186,-162C160,-152 116,-134 84,-110 76,-104 68,-97 62,-89"/>
<polygon style="fill:black;stroke:black;" points="64.2191,-86.221 55,-81 58.9511,-90.8306 64.2191,-86.221"/>
</a>
<a xlink:href="lang&#45;&gt;colors" xlink:title="self">
</a>
<a xlink:href="lang&#45;&gt;colors" xlink:title="self">
</a>
</g>
<!-- command -->
<g id="node4" class="node"><title>command</title>
<a xlink:href="http://www.graphviz.org/doc/info/command.html" xlink:title="command">
<ellipse style="fill:grey;stroke:black;" cx="211" cy="-59" rx="41.1991" ry="18"/>
<text text-anchor="middle" x="211" y="-54.65" style="font-family:Times New Roman;font-size:14.00;">command</text>
</a>
</g>
<!-- lang&#45;&gt;command -->
<g id="edge3" class="edge"><title>lang&#45;&gt;command</title>
<a xlink:href="http://www.graphviz.org/doc/info/shapes.html">
<path style="fill:none;stroke:black;" d="M211,-152C211,-134 211,-108 211,-87"/>
<polygon style="fill:black;stroke:black;" points="214.5,-87 211,-77 207.5,-87 214.5,-87"/>
</a>
<a xlink:href="http://www.graphviz.org/doc/info/shapes.html">
</a>
<a xlink:href="http://www.graphviz.org/doc/info/shapes.html">
</a>
</g>
<!-- size -->
<g id="node9" class="node"><title>size</title>
<ellipse style="fill:none;stroke:black;" cx="297" cy="-59" rx="27" ry="18"/>
<text text-anchor="middle" x="297" y="-54.65" style="font-family:Times New Roman;font-size:14.00;">size</text>
</g>
<!-- lang&#45;&gt;size -->
<g id="edge7" class="edge"><title>lang&#45;&gt;size</title>
<a xlink:href="headurl" xlink:title="headurl">
<path style="fill:none;stroke:black;" d="M225,-155C236,-143 252,-126 264,-110 270,-102 276,-93 282,-85"/>
<polygon style="fill:black;stroke:black;" points="285.203,-86.4414 287,-76 279.084,-83.0418 285.203,-86.4414"/>
</a>
<a xlink:href="headurl" xlink:title="headurl">
</a>
<a xlink:href="headurl" xlink:title="headurl">
</a>
<a xlink:href="headurl" xlink:title="size">
<text text-anchor="middle" x="286" y="-81.65" style="font-family:Times New Roman;font-size:14.00;">size</text>
</a>
</g>
<!-- name -->
<g id="node5" class="node"><title>name</title>
<a xlink:href="G name" xlink:title="name">
<ellipse style="fill:none;stroke:black;" cx="124" cy="-59" rx="27.95" ry="18"/>
<text text-anchor="middle" x="124" y="-54.65" style="font-family:Times New Roman;font-size:14.00;">name</text>
</a>
</g>
<!-- word -->
<g id="node10" class="node"><title>word</title>
<ellipse style="fill:none;stroke:black;" cx="349" cy="-170" rx="27.1955" ry="18"/>
<text text-anchor="middle" x="349" y="-165.65" style="font-family:Times New Roman;font-size:14.00;">word</text>
</g>
<!-- word&#45;&gt;size -->
<g id="edge9" class="edge"><title>word&#45;&gt;size</title>
<a xlink:href="tailurl">
<path style="fill:none;stroke:black;" d="M341,-153C332,-135 319,-107 310,-86"/>
<polygon style="fill:black;stroke:black;" points="312.916,-84.0418 305,-77 306.797,-87.4414 312.916,-84.0418"/>
</a>
<a xlink:href="tailurl" xlink:title="size">
</a>
<a xlink:href="tailurl">
</a>
<a xlink:href="tailurl" xlink:title="size">
<text text-anchor="middle" x="333" y="-142.65" style="font-family:Times New Roman;font-size:14.00;">size</text>
</a>
</g>
<!-- garf -->
<g id="node13" class="node"><title>garf</title>
<ellipse style="fill:none;stroke:black;" cx="369" cy="-59" rx="27" ry="18"/>
<text text-anchor="middle" x="369" y="-54.65" style="font-family:Times New Roman;font-size:14.00;">garf</text>
</g>
<!-- word&#45;&gt;garf -->
<g id="edge11" class="edge"><title>word&#45;&gt;garf</title>
<a xlink:href="labelurl" xlink:title="garf">
<path style="fill:none;stroke:black;" d="M352,-152C355,-134 360,-108 364,-87"/>
<polygon style="fill:black;stroke:black;" points="367.471,-87.4922 366,-77 360.607,-86.1194 367.471,-87.4922"/>
</a>
<a xlink:href="labelurl" xlink:title="garf">
</a>
<a xlink:href="labelurl" xlink:title="garf">
</a>
<a xlink:href="garf" xlink:title="garf">
<text text-anchor="middle" x="368" y="-121.65" style="font-family:Times New Roman;font-size:14.00;">garf</text>
</a>
</g>
<!-- line -->
<g id="node14" class="node"><title>line</title>
<ellipse style="fill:none;stroke:black;" cx="441" cy="-170" rx="27" ry="18"/>
<text text-anchor="middle" x="441" y="-165.65" style="font-family:Times New Roman;font-size:14.00;">line</text>
</g>
<!-- all -->
<g id="node16" class="node"><title>all</title>
<ellipse style="fill:none;stroke:black;" cx="441" cy="-59" rx="27" ry="18"/>
<text text-anchor="middle" x="441" y="-54.65" style="font-family:Times New Roman;font-size:14.00;">all</text>
</g>
<!-- line&#45;&gt;all -->
<g id="edge13" class="edge"><title>line&#45;&gt;all</title>
<a xlink:href="labelurl" xlink:title="edgetooltip">
<path style="fill:none;stroke:black;" d="M441,-152C441,-134 441,-108 441,-87"/>
<polygon style="fill:black;stroke:black;" points="444.5,-87 441,-77 437.5,-87 444.5,-87"/>
</a>
<a xlink:href="tailURL" xlink:title="tailtooltip">
</a>
<a xlink:href="headURL" xlink:title="headtooltip">
</a>
<a xlink:href="garf" xlink:title="garf">
<text text-anchor="middle" x="452" y="-121.65" style="font-family:Times New Roman;font-size:14.00;">garf</text>
</a>
<a xlink:href="headURL" xlink:title="headtooltip">
<text text-anchor="middle" x="445" y="-81.65" style="font-family:Times New Roman;font-size:14.00;">headlabel</text>
</a>
<a xlink:href="tailURL" xlink:title="tailtooltip">
<text text-anchor="middle" x="437" y="-138.65" style="font-family:Times New Roman;font-size:14.00;">taillabel</text>
</a>
</g>
</g>
</svg>
