<?xml version="1.0" encoding="UTF-8" standalone="no"?>
<?xml-stylesheet href="stylesheet" type="text/css"?>
<!DOCTYPE svg PUBLIC "-//W3C//DTD SVG 1.0//EN"
 "http://www.w3.org/TR/2001/REC-SVG-20010904/DTD/svg10.dtd" [
 <!ATTLIST svg xmlns:xlink CDATA #FIXED "http://www.w3.org/1999/xlink">
]>
<!-- Generated by Graphviz version 2.19.0 (Fri Jun 20 21:16:04 UTC 2008)
     For user: (ellson) John Ellson -->
<!-- Title: G Pages: 1 -->
<svg width="521pt" height="198pt"
 viewBox="0.00 0.00 521.00 198.00" xmlns="http://www.w3.org/2000/svg" xmlns:xlink="http://www.w3.org/1999/xlink">
<g id="graph0" class="graph" transform="scale(1 1) rotate(0) translate(4 194)">
<title>G</title>
<a xlink:href="http://www.graphviz.org/doc/info/output.html" xlink:title="output">
<polygon style="fill:white;stroke:white;" points="-4,4 -4,-194 517,-194 517,4 -4,4"/>
<text text-anchor="middle" x="256" y="-7.9" style="font-family:Times New Roman;font-size:14.00;">output</text>
</a>
<g id="cluster2" class="cluster"><title>cluster0</title>
<a xlink:href="http://www.graphviz.org/doc/info/arrows.html" xlink:title="arrows">
<polygon style="fill:yellow;stroke:black;" points="100,-33 100,-110 298,-110 298,-33 100,-33"/>
<text text-anchor="middle" x="199" y="-93.9" style="font-family:Times New Roman;font-size:14.00;">arrows</text>
</a>
</g>
<!-- lang -->
<g id="node1" class="node"><title>lang</title>
<a xlink:href="http://www.graphviz.org/doc/info/lang.html" xlink:title="lang">
<ellipse style="fill:none;stroke:black;" cx="240" cy="-172" rx="27.9903" ry="18"/>
<text text-anchor="middle" x="240" y="-167.9" style="font-family:Times New Roman;font-size:14.00;">lang</text>
</a>
</g>
<!-- colors -->
<g id="node2" class="node"><title>colors</title>
<a xlink:href="http://www.graphviz.org/doc/info/output.html" xlink:title="&lt;TABLE&gt;">
<ellipse style="fill:lightblue;stroke:black;" cx="45" cy="-59" rx="44.7575" ry="24.0416"/>
</a>
<a xlink:href="http://www.graphviz.org/doc/info/colors.html" xlink:title="&lt;TABLE&gt;">
<polygon style="fill:none;stroke:black;" points="21,-46 21,-72 69,-72 69,-46 21,-46"/>
<polygon style="fill:green;stroke:green;" points="24,-49 24,-69 66,-69 66,-49 24,-49"/>
<polygon style="fill:none;stroke:black;" points="24,-49 24,-69 66,-69 66,-49 24,-49"/>
<text text-anchor="middle" x="45" y="-55.7333" style="font-family:Times New Roman;font-size:14.00;">colors</text>
</a>
<a xlink:href="http://www.graphviz.org/doc/info/output.html" xlink:title="&lt;TABLE&gt;">
</a>
</g>
<!-- lang&#45;&gt;colors -->
<g id="edge5" class="edge"><title>lang&#45;&gt;colors</title>
<a xlink:href="lang-&gt;colors" xlink:title="self">
<path style="fill:none;stroke:black;" d="M215,-164C185,-155 134,-136 96,-110 87,-104 79,-96 71,-89"/>
<polygon style="fill:black;stroke:black;" points="73.2191,-86.221 64,-81 67.9511,-90.8306 73.2191,-86.221"/>
</a>
<a xlink:href="lang-&gt;colors" xlink:title="self">
</a>
<a xlink:href="lang-&gt;colors" xlink:title="self">
</a>
</g>
<!-- command -->
<g id="node4" class="node"><title>command</title>
<a xlink:href="http://www.graphviz.org/doc/info/command.html" xlink:title="command">
<ellipse style="fill:grey;stroke:black;" cx="240" cy="-59" rx="50.0315" ry="18"/>
<text text-anchor="middle" x="240" y="-54.9" style="font-family:Times New Roman;font-size:14.00;">command</text>
</a>
</g>
<!-- lang&#45;&gt;command -->
<g id="edge3" class="edge"><title>lang&#45;&gt;command</title>
<a xlink:href="http://www.graphviz.org/doc/info/shapes.html">
<path style="fill:none;stroke:black;" d="M240,-154C240,-136 240,-108 240,-87"/>
<polygon style="fill:black;stroke:black;" points="243.5,-87 240,-77 236.5,-87 243.5,-87"/>
</a>
<a xlink:href="http://www.graphviz.org/doc/info/shapes.html">
</a>
<a xlink:href="http://www.graphviz.org/doc/info/shapes.html">
</a>
</g>
<!-- size -->
<g id="node9" class="node"><title>size</title>
<ellipse style="fill:none;stroke:black;" cx="335" cy="-59" rx="27.1004" ry="18"/>
<text text-anchor="middle" x="335" y="-54.9" style="font-family:Times New Roman;font-size:14.00;">size</text>
</g>
<!-- lang&#45;&gt;size -->
<g id="edge7" class="edge"><title>lang&#45;&gt;size</title>
<a xlink:href="headurl" xlink:title="headurl">
<path style="fill:none;stroke:black;" d="M256,-157C269,-145 288,-127 302,-110 308,-102 314,-93 320,-85"/>
<polygon style="fill:black;stroke:black;" points="323.203,-86.4414 325,-76 317.084,-83.0418 323.203,-86.4414"/>
</a>
<a xlink:href="headurl" xlink:title="headurl">
</a>
<a xlink:href="headurl" xlink:title="headurl">
</a>
<a xlink:href="headurl" xlink:title="size">
<text text-anchor="middle" x="324" y="-81.9" style="font-family:Times New Roman;font-size:14.00;">size</text>
</a>
</g>
<!-- name -->
<g id="node5" class="node"><title>name</title>
<a xlink:href="G name" xlink:title="name">
<ellipse style="fill:none;stroke:black;" cx="140" cy="-59" rx="32.157" ry="18"/>
<text text-anchor="middle" x="140" y="-54.9" style="font-family:Times New Roman;font-size:14.00;">name</text>
</a>
</g>
<!-- word -->
<g id="node10" class="node"><title>word</title>
<ellipse style="fill:none;stroke:black;" cx="386" cy="-172" rx="30.7734" ry="18"/>
<text text-anchor="middle" x="386" y="-167.9" style="font-family:Times New Roman;font-size:14.00;">word</text>
</g>
<!-- word&#45;&gt;size -->
<g id="edge9" class="edge"><title>word&#45;&gt;size</title>
<a xlink:href="tailurl">
<path style="fill:none;stroke:black;" d="M378,-154C370,-136 356,-107 347,-85"/>
<polygon style="fill:black;stroke:black;" points="350.26,-83.7166 343,-76 343.863,-86.5596 350.26,-83.7166"/>
</a>
<a xlink:href="tailurl" xlink:title="size">
</a>
<a xlink:href="tailurl">
</a>
<a xlink:href="tailurl" xlink:title="size">
<text text-anchor="middle" x="370" y="-142.9" style="font-family:Times New Roman;font-size:14.00;">size</text>
</a>
</g>
<!-- garf -->
<g id="node13" class="node"><title>garf</title>
<ellipse style="fill:none;stroke:black;" cx="407" cy="-59" rx="27.1004" ry="18"/>
<text text-anchor="middle" x="407" y="-54.9" style="font-family:Times New Roman;font-size:14.00;">garf</text>
</g>
<!-- word&#45;&gt;garf -->
<g id="edge11" class="edge"><title>word&#45;&gt;garf</title>
<a xlink:href="labelurl" xlink:title="garf">
<path style="fill:none;stroke:black;" d="M389,-154C392,-136 398,-108 402,-87"/>
<polygon style="fill:black;stroke:black;" points="405.471,-87.4922 404,-77 398.607,-86.1194 405.471,-87.4922"/>
</a>
<a xlink:href="labelurl" xlink:title="garf">
</a>
<a xlink:href="labelurl" xlink:title="garf">
</a>
<a xlink:href="garf" xlink:title="garf">
<text text-anchor="middle" x="406" y="-122.9" style="font-family:Times New Roman;font-size:14.00;">garf</text>
</a>
</g>
<!-- line -->
<g id="node14" class="node"><title>line</title>
<ellipse style="fill:none;stroke:black;" cx="481" cy="-172" rx="27" ry="18"/>
<text text-anchor="middle" x="481" y="-167.9" style="font-family:Times New Roman;font-size:14.00;">line</text>
</g>
<!-- all -->
<g id="node16" class="node"><title>all</title>
<ellipse style="fill:none;stroke:black;" cx="481" cy="-59" rx="27" ry="18"/>
<text text-anchor="middle" x="481" y="-54.9" style="font-family:Times New Roman;font-size:14.00;">all</text>
</g>
<!-- line&#45;&gt;all -->
<g id="edge13" class="edge"><title>line&#45;&gt;all</title>
<a xlink:href="labelurl" xlink:title="edgetooltip">
<path style="fill:none;stroke:black;" d="M481,-154C481,-136 481,-108 481,-87"/>
<polygon style="fill:black;stroke:black;" points="484.5,-87 481,-77 477.5,-87 484.5,-87"/>
</a>
<a xlink:href="tailURL" xlink:title="tailtooltip">
</a>
<a xlink:href="headURL" xlink:title="headtooltip">
</a>
<a xlink:href="garf" xlink:title="garf">
<text text-anchor="middle" x="492" y="-122.9" style="font-family:Times New Roman;font-size:14.00;">garf</text>
</a>
<a xlink:href="headURL" xlink:title="headtooltip">
<text text-anchor="middle" x="485" y="-81.9" style="font-family:Times New Roman;font-size:14.00;">headlabel</text>
</a>
<a xlink:href="tailURL" xlink:title="tailtooltip">
<text text-anchor="middle" x="477" y="-140.9" style="font-family:Times New Roman;font-size:14.00;">taillabel</text>
</a>
</g>
</g>
</svg>
