<?xml version="1.0" encoding="UTF-8" standalone="no"?>
<!DOCTYPE svg PUBLIC "-//W3C//DTD SVG 1.1//EN"
 "http://www.w3.org/Graphics/SVG/1.1/DTD/svg11.dtd">
<!-- Generated by graphviz version 2.41.20170129.2353 (20170129.2353)
 -->
<!-- Title: G Pages: 1 -->
<svg width="510pt" height="392pt"
 viewBox="0.00 0.00 510.00 392.19" xmlns="http://www.w3.org/2000/svg" xmlns:xlink="http://www.w3.org/1999/xlink">
<g id="graph0" class="graph" transform="scale(1 1) rotate(0) translate(4 388.1915)">
<title>G</title>
<polygon fill="#0000ff" stroke="transparent" points="-4,4 -4,-388.1915 506,-388.1915 506,4 -4,4"/>
<g id="clust1" class="cluster">
<title>cluster_1</title>
<polygon fill="#0000ff" stroke="#000000" points="49,-291.1915 49,-376.1915 489,-376.1915 489,-291.1915 49,-291.1915"/>
<text text-anchor="middle" x="269" y="-360.9915" font-family="Times,serif" font-size="14.00" fill="#ffffff">X11 Colors</text>
</g>
<g id="clust2" class="cluster">
<title>cluster_2</title>
<polygon fill="#0000ff" stroke="#000000" points="49,-198.1915 49,-283.1915 489,-283.1915 489,-198.1915 49,-198.1915"/>
<text text-anchor="middle" x="269" y="-267.9915" font-family="Times,serif" font-size="14.00" fill="#ffffff">SVG Colors</text>
</g>
<g id="clust3" class="cluster">
<title>cluster_3</title>
<polygon fill="#0000ff" stroke="#000000" points="8,-103.0957 8,-190.1915 494,-190.1915 494,-103.0957 8,-103.0957"/>
<text text-anchor="middle" x="251" y="-174.9915" font-family="Times,serif" font-size="14.00" fill="#ffffff">Brewer &#45; accent</text>
</g>
<g id="clust4" class="cluster">
<title>cluster_4</title>
<polygon fill="#0000ff" stroke="#000000" points="8,-8 8,-95.0957 494,-95.0957 494,-8 8,-8"/>
<text text-anchor="middle" x="251" y="-79.8957" font-family="Times,serif" font-size="14.00" fill="#ffffff">Brewer &#45; blues</text>
</g>
<!-- n5 -->
<g id="node1" class="node">
<title>n5</title>
<defs>
<linearGradient id="l_0" gradientUnits="userSpaceOnUse" x1="427" y1="-322.1915" x2="481" y2="-322.1915" >
<stop offset="0" style="stop-color:#faebd7;stop-opacity:1.;"/>
<stop offset="1" style="stop-color:#7fffd4;stop-opacity:1.;"/>
</linearGradient>
</defs>
<polygon fill="url(#l_0)" stroke="#000000" points="481,-340.1915 427,-340.1915 427,-304.1915 481,-304.1915 481,-340.1915"/>
<text text-anchor="middle" x="454" y="-318.4915" font-family="Times,serif" font-size="14.00" fill="#000000">n5</text>
</g>
<!-- n4 -->
<g id="node2" class="node">
<title>n4</title>
<defs>
<linearGradient id="l_1" gradientUnits="userSpaceOnUse" x1="355" y1="-322.1915" x2="409" y2="-322.1915" >
<stop offset="0" style="stop-color:#8b7d6b;stop-opacity:1.;"/>
<stop offset="1" style="stop-color:#0000ee;stop-opacity:1.;"/>
</linearGradient>
</defs>
<ellipse fill="url(#l_1)" stroke="#000000" cx="382" cy="-322.1915" rx="27" ry="18"/>
<text text-anchor="middle" x="382" y="-318.4915" font-family="Times,serif" font-size="14.00" fill="#000000">n4</text>
</g>
<!-- n3 -->
<g id="node3" class="node">
<title>n3</title>
<defs>
<linearGradient id="l_2" gradientUnits="userSpaceOnUse" x1="298.5035" y1="-322.1915" x2="337.4965" y2="-322.1915" >
<stop offset="0" style="stop-color:#98f5ff;stop-opacity:1.;"/>
<stop offset="1" style="stop-color:#ff7f24;stop-opacity:1.;"/>
</linearGradient>
</defs>
<ellipse fill="url(#l_2)" stroke="#000000" cx="318" cy="-322.1915" rx="19.4965" ry="19.4965"/>
<text text-anchor="middle" x="318" y="-318.4915" font-family="Times,serif" font-size="14.00" fill="#000000">n3</text>
</g>
<!-- n9 -->
<g id="node9" class="node">
<title>n9</title>
<defs>
<linearGradient id="l_3" gradientUnits="userSpaceOnUse" x1="298.5035" y1="-229.1915" x2="337.4965" y2="-229.1915" >
<stop offset="0" style="stop-color:#00bfff;stop-opacity:1.;"/>
<stop offset="1" style="stop-color:#ffd700;stop-opacity:1.;"/>
</linearGradient>
</defs>
<ellipse fill="url(#l_3)" stroke="#000000" cx="318" cy="-229.1915" rx="19.4965" ry="19.4965"/>
<text text-anchor="middle" x="318" y="-225.4915" font-family="Times,serif" font-size="14.00" fill="#000000">n9</text>
</g>
<!-- n3&#45;&gt;n9 -->
<g id="edge1" class="edge">
<title>n3&#45;&gt;n9</title>
<path fill="none" stroke="#000000" d="M318,-302.4686C318,-289.8919 318,-273.351 318,-259.1677"/>
<polygon fill="#000000" stroke="#000000" points="321.5001,-258.8859 318,-248.8859 314.5001,-258.886 321.5001,-258.8859"/>
</g>
<!-- n2 -->
<g id="node4" class="node">
<title>n2</title>
<defs>
<linearGradient id="l_4" gradientUnits="userSpaceOnUse" x1="225.3504" y1="-322.1915" x2="280.6496" y2="-322.1915" >
<stop offset="0" style="stop-color:#dc143c;stop-opacity:1.;"/>
<stop offset="1" style="stop-color:#008b8b;stop-opacity:1.;"/>
</linearGradient>
</defs>
<polygon fill="url(#l_4)" stroke="#000000" points="253,-340.1915 225.3504,-322.1915 253,-304.1915 280.6496,-322.1915 253,-340.1915"/>
<text text-anchor="middle" x="253" y="-318.4915" font-family="Times,serif" font-size="14.00" fill="#000000">n2</text>
</g>
<!-- n1 -->
<g id="node5" class="node">
<title>n1</title>
<defs>
<linearGradient id="l_5" gradientUnits="userSpaceOnUse" x1="129.0069" y1="-327.9415" x2="206.9931" y2="-327.9415" >
<stop offset="0" style="stop-color:#00b2ee;stop-opacity:1.;"/>
<stop offset="1" style="stop-color:#b22222;stop-opacity:1.;"/>
</linearGradient>
</defs>
<polygon fill="url(#l_5)" stroke="#000000" points="168,-345.1915 129.0069,-310.6915 206.9931,-310.6915 168,-345.1915"/>
<text text-anchor="middle" x="168" y="-318.4915" font-family="Times,serif" font-size="14.00" fill="#000000">n1</text>
</g>
<!-- n0 -->
<g id="node6" class="node">
<title>n0</title>
<defs>
<linearGradient id="l_6" gradientUnits="userSpaceOnUse" x1="57" y1="-323.9103" x2="111" y2="-323.9103" >
<stop offset="0" style="stop-color:#3d3d3d;stop-opacity:1.;"/>
<stop offset="1" style="stop-color:#e0e0e0;stop-opacity:1.;"/>
</linearGradient>
</defs>
<polygon fill="url(#l_6)" stroke="#000000" points="111,-327.7538 84,-340.1915 57,-327.7538 67.3131,-307.6292 100.6869,-307.6292 111,-327.7538"/>
<text text-anchor="middle" x="84" y="-318.4915" font-family="Times,serif" font-size="14.00" fill="#000000">n0</text>
</g>
<!-- n11 -->
<g id="node7" class="node">
<title>n11</title>
<defs>
<linearGradient id="l_7" gradientUnits="userSpaceOnUse" x1="427" y1="-229.1915" x2="481" y2="-229.1915" >
<stop offset="0" style="stop-color:#ffe4c4;stop-opacity:1.;"/>
<stop offset="1" style="stop-color:#a52a2a;stop-opacity:1.;"/>
</linearGradient>
</defs>
<polygon fill="url(#l_7)" stroke="#000000" points="481,-247.1915 427,-247.1915 427,-211.1915 481,-211.1915 481,-247.1915"/>
<text text-anchor="middle" x="454" y="-225.4915" font-family="Times,serif" font-size="14.00" fill="#000000">n11</text>
</g>
<!-- n10 -->
<g id="node8" class="node">
<title>n10</title>
<defs>
<linearGradient id="l_8" gradientUnits="userSpaceOnUse" x1="355" y1="-229.1915" x2="409" y2="-229.1915" >
<stop offset="0" style="stop-color:#00ff00;stop-opacity:1.;"/>
<stop offset="1" style="stop-color:#9932cc;stop-opacity:1.;"/>
</linearGradient>
</defs>
<ellipse fill="url(#l_8)" stroke="#000000" cx="382" cy="-229.1915" rx="27" ry="18"/>
<text text-anchor="middle" x="382" y="-225.4915" font-family="Times,serif" font-size="14.00" fill="#000000">n10</text>
</g>
<!-- n15 -->
<g id="node15" class="node">
<title>n15</title>
<defs>
<linearGradient id="l_9" gradientUnits="userSpaceOnUse" x1="293.9042" y1="-135.1436" x2="342.0958" y2="-135.1436" >
<stop offset="0" style="stop-color:#7fc97f;stop-opacity:1.;"/>
<stop offset="1" style="stop-color:#386cb0;stop-opacity:1.;"/>
</linearGradient>
</defs>
<ellipse fill="url(#l_9)" stroke="#000000" cx="318" cy="-135.1436" rx="24.0958" ry="24.0958"/>
<text text-anchor="middle" x="318" y="-131.4436" font-family="Times,serif" font-size="14.00" fill="#000000">n15</text>
</g>
<!-- n9&#45;&gt;n15 -->
<g id="edge2" class="edge">
<title>n9&#45;&gt;n15</title>
<path fill="none" stroke="#000000" d="M318,-209.2463C318,-197.7589 318,-183.0009 318,-169.6832"/>
<polygon fill="#000000" stroke="#000000" points="321.5001,-169.4014 318,-159.4015 314.5001,-169.4015 321.5001,-169.4014"/>
</g>
<!-- n8 -->
<g id="node10" class="node">
<title>n8</title>
<defs>
<linearGradient id="l_10" gradientUnits="userSpaceOnUse" x1="225.3504" y1="-229.1915" x2="280.6496" y2="-229.1915" >
<stop offset="0" style="stop-color:#20b2aa;stop-opacity:1.;"/>
<stop offset="1" style="stop-color:#ff4500;stop-opacity:1.;"/>
</linearGradient>
</defs>
<polygon fill="url(#l_10)" stroke="#000000" points="253,-247.1915 225.3504,-229.1915 253,-211.1915 280.6496,-229.1915 253,-247.1915"/>
<text text-anchor="middle" x="253" y="-225.4915" font-family="Times,serif" font-size="14.00" fill="#000000">n8</text>
</g>
<!-- n7 -->
<g id="node11" class="node">
<title>n7</title>
<defs>
<linearGradient id="l_11" gradientUnits="userSpaceOnUse" x1="129.0069" y1="-234.9415" x2="206.9931" y2="-234.9415" >
<stop offset="0" style="stop-color:#40e0d0;stop-opacity:1.;"/>
<stop offset="1" style="stop-color:#fa8072;stop-opacity:1.;"/>
</linearGradient>
</defs>
<polygon fill="url(#l_11)" stroke="#000000" points="168,-252.1915 129.0069,-217.6915 206.9931,-217.6915 168,-252.1915"/>
<text text-anchor="middle" x="168" y="-225.4915" font-family="Times,serif" font-size="14.00" fill="#000000">n7</text>
</g>
<!-- n6 -->
<g id="node12" class="node">
<title>n6</title>
<defs>
<linearGradient id="l_12" gradientUnits="userSpaceOnUse" x1="57" y1="-230.9103" x2="111" y2="-230.9103" >
<stop offset="0" style="stop-color:#fffafa;stop-opacity:1.;"/>
<stop offset="1" style="stop-color:#000000;stop-opacity:1.;"/>
</linearGradient>
</defs>
<polygon fill="url(#l_12)" stroke="#000000" points="111,-234.7538 84,-247.1915 57,-234.7538 67.3131,-214.6292 100.6869,-214.6292 111,-234.7538"/>
<text text-anchor="middle" x="84" y="-225.4915" font-family="Times,serif" font-size="14.00" fill="#000000">n6</text>
</g>
<!-- n17 -->
<g id="node13" class="node">
<title>n17</title>
<defs>
<linearGradient id="l_13" gradientUnits="userSpaceOnUse" x1="432" y1="-135.1436" x2="486" y2="-135.1436" >
<stop offset="0" style="stop-color:#7fc97f;stop-opacity:1.;"/>
<stop offset="1" style="stop-color:#fdc086;stop-opacity:1.;"/>
</linearGradient>
</defs>
<polygon fill="url(#l_13)" stroke="#000000" points="486,-153.1436 432,-153.1436 432,-117.1436 486,-117.1436 486,-153.1436"/>
<text text-anchor="middle" x="459" y="-131.4436" font-family="Times,serif" font-size="14.00" fill="#000000">n17</text>
</g>
<!-- n16 -->
<g id="node14" class="node">
<title>n16</title>
<defs>
<linearGradient id="l_14" gradientUnits="userSpaceOnUse" x1="360" y1="-135.1436" x2="414" y2="-135.1436" >
<stop offset="0" style="stop-color:#7fc97f;stop-opacity:1.;"/>
<stop offset="1" style="stop-color:#ffff99;stop-opacity:1.;"/>
</linearGradient>
</defs>
<ellipse fill="url(#l_14)" stroke="#000000" cx="387" cy="-135.1436" rx="27" ry="18"/>
<text text-anchor="middle" x="387" y="-131.4436" font-family="Times,serif" font-size="14.00" fill="#000000">n16</text>
</g>
<!-- n21 -->
<g id="node21" class="node">
<title>n21</title>
<defs>
<linearGradient id="l_15" gradientUnits="userSpaceOnUse" x1="293.9042" y1="-40.0479" x2="342.0958" y2="-40.0479" >
<stop offset="0" style="stop-color:#eff3ff;stop-opacity:1.;"/>
<stop offset="1" style="stop-color:#3182bd;stop-opacity:1.;"/>
</linearGradient>
</defs>
<ellipse fill="url(#l_15)" stroke="#000000" cx="318" cy="-40.0479" rx="24.0958" ry="24.0958"/>
<text text-anchor="middle" x="318" y="-36.3479" font-family="Times,serif" font-size="14.00" fill="#000000">n21</text>
</g>
<!-- n15&#45;&gt;n21 -->
<g id="edge3" class="edge">
<title>n15&#45;&gt;n21</title>
<path fill="none" stroke="#000000" d="M318,-110.6541C318,-99.5876 318,-86.3222 318,-74.2924"/>
<polygon fill="#000000" stroke="#000000" points="321.5001,-74.1252 318,-64.1252 314.5001,-74.1252 321.5001,-74.1252"/>
</g>
<!-- n14 -->
<g id="node16" class="node">
<title>n14</title>
<defs>
<linearGradient id="l_16" gradientUnits="userSpaceOnUse" x1="207.9824" y1="-135.1436" x2="276.0176" y2="-135.1436" >
<stop offset="0" style="stop-color:#7fc97f;stop-opacity:1.;"/>
<stop offset="1" style="stop-color:#f0027f;stop-opacity:1.;"/>
</linearGradient>
</defs>
<polygon fill="url(#l_16)" stroke="#000000" points="242,-153.1436 207.9824,-135.1436 242,-117.1436 276.0176,-135.1436 242,-153.1436"/>
<text text-anchor="middle" x="242" y="-131.4436" font-family="Times,serif" font-size="14.00" fill="#000000">n14</text>
</g>
<!-- n13 -->
<g id="node17" class="node">
<title>n13</title>
<defs>
<linearGradient id="l_17" gradientUnits="userSpaceOnUse" x1="93.8083" y1="-140.8936" x2="190.1917" y2="-140.8936" >
<stop offset="0" style="stop-color:#7fc97f;stop-opacity:1.;"/>
<stop offset="1" style="stop-color:#bf5b17;stop-opacity:1.;"/>
</linearGradient>
</defs>
<polygon fill="url(#l_17)" stroke="#000000" points="142,-158.1436 93.8083,-123.6436 190.1917,-123.6436 142,-158.1436"/>
<text text-anchor="middle" x="142" y="-131.4436" font-family="Times,serif" font-size="14.00" fill="#000000">n13</text>
</g>
<!-- n12 -->
<g id="node18" class="node">
<title>n12</title>
<defs>
<linearGradient id="l_18" gradientUnits="userSpaceOnUse" x1="16.0487" y1="-136.8624" x2="75.9513" y2="-136.8624" >
<stop offset="0" style="stop-color:#7fc97f;stop-opacity:1.;"/>
<stop offset="1" style="stop-color:#666666;stop-opacity:1.;"/>
</linearGradient>
</defs>
<polygon fill="url(#l_18)" stroke="#000000" points="75.9513,-140.7059 46,-153.1436 16.0487,-140.7059 27.4891,-120.5813 64.5109,-120.5813 75.9513,-140.7059"/>
<text text-anchor="middle" x="46" y="-131.4436" font-family="Times,serif" font-size="14.00" fill="#000000">n12</text>
</g>
<!-- n23 -->
<g id="node19" class="node">
<title>n23</title>
<defs>
<linearGradient id="l_19" gradientUnits="userSpaceOnUse" x1="432" y1="-40.0479" x2="486" y2="-40.0479" >
<stop offset="0" style="stop-color:#deebf7;stop-opacity:1.;"/>
<stop offset="1" style="stop-color:#9ecae1;stop-opacity:1.;"/>
</linearGradient>
</defs>
<polygon fill="url(#l_19)" stroke="#000000" points="486,-58.0479 432,-58.0479 432,-22.0479 486,-22.0479 486,-58.0479"/>
<text text-anchor="middle" x="459" y="-36.3479" font-family="Times,serif" font-size="14.00" fill="#000000">n23</text>
</g>
<!-- n22 -->
<g id="node20" class="node">
<title>n22</title>
<defs>
<linearGradient id="l_20" gradientUnits="userSpaceOnUse" x1="360" y1="-40.0479" x2="414" y2="-40.0479" >
<stop offset="0" style="stop-color:#eff3ff;stop-opacity:1.;"/>
<stop offset="1" style="stop-color:#6baed6;stop-opacity:1.;"/>
</linearGradient>
</defs>
<ellipse fill="url(#l_20)" stroke="#000000" cx="387" cy="-40.0479" rx="27" ry="18"/>
<text text-anchor="middle" x="387" y="-36.3479" font-family="Times,serif" font-size="14.00" fill="#000000">n22</text>
</g>
<!-- n20 -->
<g id="node22" class="node">
<title>n20</title>
<defs>
<linearGradient id="l_21" gradientUnits="userSpaceOnUse" x1="207.9824" y1="-40.0479" x2="276.0176" y2="-40.0479" >
<stop offset="0" style="stop-color:#eff3ff;stop-opacity:1.;"/>
<stop offset="1" style="stop-color:#3182bd;stop-opacity:1.;"/>
</linearGradient>
</defs>
<polygon fill="url(#l_21)" stroke="#000000" points="242,-58.0479 207.9824,-40.0479 242,-22.0479 276.0176,-40.0479 242,-58.0479"/>
<text text-anchor="middle" x="242" y="-36.3479" font-family="Times,serif" font-size="14.00" fill="#000000">n20</text>
</g>
<!-- n19 -->
<g id="node23" class="node">
<title>n19</title>
<defs>
<linearGradient id="l_22" gradientUnits="userSpaceOnUse" x1="93.8083" y1="-45.7979" x2="190.1917" y2="-45.7979" >
<stop offset="0" style="stop-color:#eff3ff;stop-opacity:1.;"/>
<stop offset="1" style="stop-color:#2171b5;stop-opacity:1.;"/>
</linearGradient>
</defs>
<polygon fill="url(#l_22)" stroke="#000000" points="142,-63.0479 93.8083,-28.5479 190.1917,-28.5479 142,-63.0479"/>
<text text-anchor="middle" x="142" y="-36.3479" font-family="Times,serif" font-size="14.00" fill="#000000">n19</text>
</g>
<!-- n18 -->
<g id="node24" class="node">
<title>n18</title>
<defs>
<linearGradient id="l_23" gradientUnits="userSpaceOnUse" x1="16.0487" y1="-41.7667" x2="75.9513" y2="-41.7667" >
<stop offset="0" style="stop-color:#f7fbff;stop-opacity:1.;"/>
<stop offset="1" style="stop-color:#2171b5;stop-opacity:1.;"/>
</linearGradient>
</defs>
<polygon fill="url(#l_23)" stroke="#000000" points="75.9513,-45.6102 46,-58.0479 16.0487,-45.6102 27.4891,-25.4856 64.5109,-25.4856 75.9513,-45.6102"/>
<text text-anchor="middle" x="46" y="-36.3479" font-family="Times,serif" font-size="14.00" fill="#000000">n18</text>
</g>
</g>
</svg>
