<?xml version="1.0" encoding="UTF-8" standalone="no"?>
<!DOCTYPE svg PUBLIC "-//W3C//DTD SVG 1.1//EN"
 "http://www.w3.org/Graphics/SVG/1.1/DTD/svg11.dtd">
<!-- Generated by graphviz version 2.41.20170129.2353 (20170129.2353)
 -->
<!-- Title: G Pages: 1 -->
<svg width="464pt" height="132pt"
 viewBox="0.00 0.00 464.00 132.00" xmlns="http://www.w3.org/2000/svg" xmlns:xlink="http://www.w3.org/1999/xlink">
<g id="graph0" class="graph" transform="scale(1 1) rotate(0) translate(4 128)">
<title>G</title>
<defs>
<linearGradient id="l_0" gradientUnits="userSpaceOnUse" x1="112" y1="-4.8423" x2="344" y2="-119.1577" >
<stop offset="0" style="stop-color:#ffff00;stop-opacity:1.;"/>
<stop offset="1" style="stop-color:#0000ff;stop-opacity:1.;"/>
</linearGradient>
</defs>
<polygon fill="url(#l_0)" stroke="transparent" points="-4,4 -4,-128 460,-128 460,4 -4,4"/>
<text text-anchor="middle" x="228" y="-7.8" font-family="Times,serif" font-size="14.00" fill="#000000">Graph</text>
<g id="clust1" class="cluster">
<title>cluster_1</title>
<defs>
<linearGradient id="l_1" gradientUnits="userSpaceOnUse" x1="118" y1="-36.6939" x2="338" y2="-110.3061" >
<stop offset="0" style="stop-color:#00ff00;stop-opacity:1.;"/>
<stop offset="1" style="stop-color:#ff00ff;stop-opacity:1.;"/>
</linearGradient>
</defs>
<polygon fill="url(#l_1)" stroke="#000000" points="8,-31 8,-116 448,-116 448,-31 8,-31"/>
<text text-anchor="middle" x="228" y="-100.8" font-family="Times,serif" font-size="14.00" fill="#ffffff">Cluster</text>
</g>
<!-- n5 -->
<g id="node1" class="node">
<title>n5</title>
<defs>
<linearGradient id="l_2" gradientUnits="userSpaceOnUse" x1="386" y1="-62" x2="440" y2="-62" >
<stop offset="0" style="stop-color:#faebd7;stop-opacity:1.;"/>
<stop offset="1" style="stop-color:#7fffd4;stop-opacity:1.;"/>
</linearGradient>
</defs>
<polygon fill="url(#l_2)" stroke="#000000" points="440,-80 386,-80 386,-44 440,-44 440,-80"/>
<text text-anchor="middle" x="413" y="-58.3" font-family="Times,serif" font-size="14.00" fill="#000000">n5</text>
</g>
<!-- n4 -->
<g id="node2" class="node">
<title>n4</title>
<defs>
<linearGradient id="l_3" gradientUnits="userSpaceOnUse" x1="314" y1="-62" x2="368" y2="-62" >
<stop offset="0" style="stop-color:#8b7d6b;stop-opacity:1.;"/>
<stop offset="1" style="stop-color:#0000ee;stop-opacity:1.;"/>
</linearGradient>
</defs>
<ellipse fill="url(#l_3)" stroke="#000000" cx="341" cy="-62" rx="27" ry="18"/>
<text text-anchor="middle" x="341" y="-58.3" font-family="Times,serif" font-size="14.00" fill="#000000">n4</text>
</g>
<!-- n3 -->
<g id="node3" class="node">
<title>n3</title>
<defs>
<linearGradient id="l_4" gradientUnits="userSpaceOnUse" x1="257.5035" y1="-62" x2="296.4965" y2="-62" >
<stop offset="0" style="stop-color:#98f5ff;stop-opacity:1.;"/>
<stop offset="1" style="stop-color:#ff7f24;stop-opacity:1.;"/>
</linearGradient>
</defs>
<ellipse fill="url(#l_4)" stroke="#000000" cx="277" cy="-62" rx="19.4965" ry="19.4965"/>
<text text-anchor="middle" x="277" y="-58.3" font-family="Times,serif" font-size="14.00" fill="#000000">n3</text>
</g>
<!-- n2 -->
<g id="node4" class="node">
<title>n2</title>
<defs>
<linearGradient id="l_5" gradientUnits="userSpaceOnUse" x1="184.3504" y1="-62" x2="239.6496" y2="-62" >
<stop offset="0" style="stop-color:#dc143c;stop-opacity:1.;"/>
<stop offset="1" style="stop-color:#008b8b;stop-opacity:1.;"/>
</linearGradient>
</defs>
<polygon fill="url(#l_5)" stroke="#000000" points="212,-80 184.3504,-62 212,-44 239.6496,-62 212,-80"/>
<text text-anchor="middle" x="212" y="-58.3" font-family="Times,serif" font-size="14.00" fill="#000000">n2</text>
</g>
<!-- n1 -->
<g id="node5" class="node">
<title>n1</title>
<defs>
<linearGradient id="l_6" gradientUnits="userSpaceOnUse" x1="88.0069" y1="-67.75" x2="165.9931" y2="-67.75" >
<stop offset="0" style="stop-color:#00b2ee;stop-opacity:1.;"/>
<stop offset="1" style="stop-color:#b22222;stop-opacity:1.;"/>
</linearGradient>
</defs>
<polygon fill="url(#l_6)" stroke="#000000" points="127,-85 88.0069,-50.5 165.9931,-50.5 127,-85"/>
<text text-anchor="middle" x="127" y="-58.3" font-family="Times,serif" font-size="14.00" fill="#000000">n1</text>
</g>
<!-- n0 -->
<g id="node6" class="node">
<title>n0</title>
<defs>
<linearGradient id="l_7" gradientUnits="userSpaceOnUse" x1="16" y1="-63.7188" x2="70" y2="-63.7188" >
<stop offset="0" style="stop-color:#3d3d3d;stop-opacity:1.;"/>
<stop offset="1" style="stop-color:#e0e0e0;stop-opacity:1.;"/>
</linearGradient>
</defs>
<polygon fill="url(#l_7)" stroke="#000000" points="70,-67.5623 43,-80 16,-67.5623 26.3131,-47.4377 59.6869,-47.4377 70,-67.5623"/>
<text text-anchor="middle" x="43" y="-58.3" font-family="Times,serif" font-size="14.00" fill="#000000">n0</text>
</g>
</g>
</svg>
