<?xml version="1.0" encoding="UTF-8" standalone="no"?>
<!DOCTYPE svg PUBLIC "-//W3C//DTD SVG 1.1//EN"
 "http://www.w3.org/Graphics/SVG/1.1/DTD/svg11.dtd">
<!-- Generated by graphviz version 2.41.20170129.2353 (20170129.2353)
 -->
<!-- Title: G Pages: 1 -->
<svg width="265pt" height="1102pt"
 viewBox="0.00 0.00 265.00 1102.09" xmlns="http://www.w3.org/2000/svg" xmlns:xlink="http://www.w3.org/1999/xlink">
<g id="graph0" class="graph" transform="scale(1 1) rotate(0) translate(4 1098.0923)">
<title>G</title>
<polygon fill="#0000ff" stroke="transparent" points="-4,4 -4,-1098.0923 261,-1098.0923 261,4 -4,4"/>
<g id="clust1" class="cluster">
<title>cluster_1</title>
<polygon fill="#0000ff" stroke="#000000" points="8,-8 8,-1086.0923 249,-1086.0923 249,-8 8,-8"/>
<text text-anchor="middle" x="128.5" y="-1070.8923" font-family="Times,serif" font-size="14.00" fill="#ffffff">Shape Variations</text>
</g>
<!-- n27 -->
<g id="node1" class="node">
<title>n27</title>
<defs>
<linearGradient id="l_0" gradientUnits="userSpaceOnUse" x1="176" y1="-106" x2="230" y2="-106" >
<stop offset="0" style="stop-color:#ffe4c4;stop-opacity:1.;"/>
<stop offset="1" style="stop-color:#a52a2a;stop-opacity:1.;"/>
</linearGradient>
</defs>
<polygon fill="url(#l_0)" stroke="#000000" points="230,-124 176,-124 176,-88 230,-88 230,-124"/>
<text text-anchor="middle" x="203" y="-102.3" font-family="Times,serif" font-size="14.00" fill="#000000">n27</text>
</g>
<!-- n26 -->
<g id="node2" class="node">
<title>n26</title>
<defs>
<linearGradient id="l_1" gradientUnits="userSpaceOnUse" x1="176" y1="-178" x2="230" y2="-178" >
<stop offset="0" style="stop-color:#ffe4c4;stop-opacity:1.;"/>
<stop offset="1" style="stop-color:#a52a2a;stop-opacity:1.;"/>
</linearGradient>
</defs>
<ellipse fill="url(#l_1)" stroke="#000000" cx="203" cy="-178" rx="27" ry="18"/>
<text text-anchor="middle" x="203" y="-174.3" font-family="Times,serif" font-size="14.00" fill="#000000">n26</text>
</g>
<!-- n26&#45;&gt;n27 -->
<g id="edge25" class="edge">
<title>n26&#45;&gt;n27</title>
<path fill="none" stroke="#000000" d="M203,-159.8314C203,-152.131 203,-142.9743 203,-134.4166"/>
<polygon fill="#000000" stroke="#000000" points="206.5001,-134.4132 203,-124.4133 199.5001,-134.4133 206.5001,-134.4132"/>
</g>
<!-- n25 -->
<g id="node3" class="node">
<title>n25</title>
<defs>
<linearGradient id="l_2" gradientUnits="userSpaceOnUse" x1="174.011" y1="-255" x2="231.989" y2="-255" >
<stop offset="0" style="stop-color:#ffe4c4;stop-opacity:1.;"/>
<stop offset="1" style="stop-color:#a52a2a;stop-opacity:1.;"/>
</linearGradient>
</defs>
<polygon fill="url(#l_2)" stroke="#000000" points="205.6825,-237.0493 207.4586,-237.1479 209.2163,-237.2953 210.9484,-237.4913 212.648,-237.7353 214.3083,-238.0266 215.9225,-238.3645 217.4846,-238.7479 218.9886,-239.1759 220.4288,-239.6472 221.8,-240.1606 223.0976,-240.7147 224.3172,-241.308 225.4549,-241.9388 226.5074,-242.6054 227.4717,-243.3059 228.3455,-244.0385 229.1269,-244.8012 229.8146,-245.5918 230.4075,-246.4082 230.9055,-247.2481 231.3085,-248.1093 231.6172,-248.9894 231.8325,-249.886 231.9558,-250.7965 231.989,-251.7186 231.9342,-252.6497 231.7939,-253.5873 231.5711,-254.5287 231.2687,-255.4713 230.89,-256.4127 230.4386,-257.3503 229.9181,-258.2814 229.3324,-259.2035 228.6853,-260.114 227.9807,-261.0106 227.2225,-261.8907 226.4148,-262.7519 225.5613,-263.5918 224.6659,-264.4082 223.7323,-265.1988 222.7639,-265.9615 221.7644,-266.6941 220.7368,-267.3946 219.6844,-268.0612 218.6099,-268.692 217.5161,-269.2853 216.4054,-269.8394 215.2801,-270.3528 214.1423,-270.8241 212.9939,-271.2521 211.8365,-271.6355 210.6717,-271.9734 209.5009,-272.2647 208.3251,-272.5087 207.1455,-272.7047 205.963,-272.8521 204.7786,-272.9507 203.593,-273 202.407,-273 201.2214,-272.9507 200.037,-272.8521 198.8545,-272.7047 197.6749,-272.5087 196.4991,-272.2647 195.3283,-271.9734 194.1635,-271.6355 193.0061,-271.2521 191.8577,-270.8241 190.7199,-270.3528 189.5946,-269.8394 188.4839,-269.2853 187.3901,-268.692 186.3156,-268.0612 185.2632,-267.3946 184.2356,-266.6941 183.2361,-265.9615 182.2677,-265.1988 181.3341,-264.4082 180.4387,-263.5918 179.5852,-262.7519 178.7775,-261.8907 178.0193,-261.0106 177.3147,-260.114 176.6676,-259.2035 176.0819,-258.2814 175.5614,-257.3503 175.11,-256.4127 174.7313,-255.4713 174.4289,-254.5287 174.2061,-253.5873 174.0658,-252.6497 174.011,-251.7186 174.0442,-250.7965 174.1675,-249.886 174.3828,-248.9894 174.6915,-248.1093 175.0945,-247.2481 175.5925,-246.4082 176.1854,-245.5918 176.8731,-244.8012 177.6545,-244.0385 178.5283,-243.3059 179.4926,-242.6054 180.5451,-241.9388 181.6828,-241.308 182.9024,-240.7147 184.2,-240.1606 185.5712,-239.6472 187.0114,-239.1759 188.5154,-238.7479 190.0775,-238.3645 191.6917,-238.0266 193.352,-237.7353 195.0516,-237.4913 196.7837,-237.2953 198.5414,-237.1479 200.3175,-237.0493 202.1046,-237 203.8954,-237 205.6825,-237.0493"/>
<text text-anchor="middle" x="203" y="-251.3" font-family="Times,serif" font-size="14.00" fill="#000000">n25</text>
</g>
<!-- n25&#45;&gt;n26 -->
<g id="edge24" class="edge">
<title>n25&#45;&gt;n26</title>
<path fill="none" stroke="#000000" d="M203,-236.7521C203,-227.6422 203,-216.4174 203,-206.2282"/>
<polygon fill="#000000" stroke="#000000" points="206.5001,-206.1169 203,-196.1169 199.5001,-206.117 206.5001,-206.1169"/>
</g>
<!-- n24 -->
<g id="node4" class="node">
<title>n24</title>
<defs>
<linearGradient id="l_3" gradientUnits="userSpaceOnUse" x1="168.9824" y1="-332" x2="237.0176" y2="-332" >
<stop offset="0" style="stop-color:#ffe4c4;stop-opacity:1.;"/>
<stop offset="1" style="stop-color:#a52a2a;stop-opacity:1.;"/>
</linearGradient>
</defs>
<polygon fill="url(#l_3)" stroke="#000000" points="222.8669,-350 183.1331,-350 168.9824,-314 237.0176,-314 222.8669,-350"/>
<text text-anchor="middle" x="203" y="-328.3" font-family="Times,serif" font-size="14.00" fill="#000000">n24</text>
</g>
<!-- n24&#45;&gt;n25 -->
<g id="edge23" class="edge">
<title>n24&#45;&gt;n25</title>
<path fill="none" stroke="#000000" d="M203,-313.7521C203,-304.6422 203,-293.4174 203,-283.2282"/>
<polygon fill="#000000" stroke="#000000" points="206.5001,-283.1169 203,-273.1169 199.5001,-283.117 206.5001,-283.1169"/>
</g>
<!-- n23 -->
<g id="node5" class="node">
<title>n23</title>
<defs>
<linearGradient id="l_4" gradientUnits="userSpaceOnUse" x1="165.9809" y1="-404" x2="236.0191" y2="-404" >
<stop offset="0" style="stop-color:#ffe4c4;stop-opacity:1.;"/>
<stop offset="1" style="stop-color:#a52a2a;stop-opacity:1.;"/>
</linearGradient>
</defs>
<polygon fill="url(#l_4)" stroke="#000000" points="236.0191,-422 180.3115,-422 165.9809,-386 221.6885,-386 236.0191,-422"/>
<text text-anchor="middle" x="201" y="-400.3" font-family="Times,serif" font-size="14.00" fill="#000000">n23</text>
</g>
<!-- n23&#45;&gt;n24 -->
<g id="edge22" class="edge">
<title>n23&#45;&gt;n24</title>
<path fill="none" stroke="#000000" d="M201.5047,-385.8314C201.7186,-378.131 201.9729,-368.9743 202.2106,-360.4166"/>
<polygon fill="#000000" stroke="#000000" points="205.7094,-360.5066 202.4885,-350.4133 198.7121,-360.3122 205.7094,-360.5066"/>
</g>
<!-- n22 -->
<g id="node6" class="node">
<title>n22</title>
<defs>
<linearGradient id="l_5" gradientUnits="userSpaceOnUse" x1="171.0487" y1="-483.2171" x2="230.9513" y2="-483.2171" >
<stop offset="0" style="stop-color:#ffe4c4;stop-opacity:1.;"/>
<stop offset="1" style="stop-color:#a52a2a;stop-opacity:1.;"/>
</linearGradient>
</defs>
<polygon fill="url(#l_5)" stroke="#000000" points="230.9513,-487.0606 201,-499.4983 171.0487,-487.0606 171.0766,-466.936 230.9234,-466.936 230.9513,-487.0606"/>
<text text-anchor="middle" x="201" y="-477.7983" font-family="Times,serif" font-size="14.00" fill="#000000">n22</text>
</g>
<!-- n22&#45;&gt;n23 -->
<g id="edge21" class="edge">
<title>n22&#45;&gt;n23</title>
<path fill="none" stroke="#000000" d="M201,-466.9214C201,-457.1862 201,-444.0616 201,-432.3181"/>
<polygon fill="#000000" stroke="#000000" points="204.5001,-432.0583 201,-422.0584 197.5001,-432.0584 204.5001,-432.0583"/>
</g>
<!-- n21 -->
<g id="node7" class="node">
<title>n21</title>
<defs>
<linearGradient id="l_6" gradientUnits="userSpaceOnUse" x1="174" y1="-562.9965" x2="228" y2="-562.9965" >
<stop offset="0" style="stop-color:#ffe4c4;stop-opacity:1.;"/>
<stop offset="1" style="stop-color:#a52a2a;stop-opacity:1.;"/>
</linearGradient>
</defs>
<polygon fill="url(#l_6)" stroke="#000000" points="228,-555.5407 228,-570.4524 212.1838,-580.9965 189.8162,-580.9965 174,-570.4524 174,-555.5407 189.8162,-544.9965 212.1838,-544.9965 228,-555.5407"/>
<text text-anchor="middle" x="201" y="-559.2965" font-family="Times,serif" font-size="14.00" fill="#000000">n21</text>
</g>
<!-- n21&#45;&gt;n22 -->
<g id="edge20" class="edge">
<title>n21&#45;&gt;n22</title>
<path fill="none" stroke="#000000" d="M201,-544.9094C201,-534.5692 201,-521.3743 201,-509.7014"/>
<polygon fill="#000000" stroke="#000000" points="204.5001,-509.5348 201,-499.5348 197.5001,-509.5349 204.5001,-509.5348"/>
</g>
<!-- n20 -->
<g id="node8" class="node">
<title>n20</title>
<defs>
<linearGradient id="l_7" gradientUnits="userSpaceOnUse" x1="174" y1="-646.9965" x2="228" y2="-646.9965" >
<stop offset="0" style="stop-color:#ffe4c4;stop-opacity:1.;"/>
<stop offset="1" style="stop-color:#a52a2a;stop-opacity:1.;"/>
</linearGradient>
</defs>
<polygon fill="url(#l_7)" stroke="#000000" points="228,-664.9965 174,-664.9965 174,-628.9965 228,-628.9965 228,-664.9965"/>
<text text-anchor="middle" x="201" y="-643.2965" font-family="Times,serif" font-size="14.00" fill="#000000">n20</text>
</g>
<!-- n20&#45;&gt;n21 -->
<g id="edge19" class="edge">
<title>n20&#45;&gt;n21</title>
<path fill="none" stroke="#000000" d="M201,-628.7698C201,-617.8724 201,-603.7911 201,-591.4552"/>
<polygon fill="#000000" stroke="#000000" points="204.5001,-591.1877 201,-581.1877 197.5001,-591.1878 204.5001,-591.1877"/>
</g>
<!-- n19 -->
<g id="node9" class="node">
<title>n19</title>
<defs>
<linearGradient id="l_8" gradientUnits="userSpaceOnUse" x1="172.9042" y1="-733.0444" x2="221.0958" y2="-733.0444" >
<stop offset="0" style="stop-color:#ffe4c4;stop-opacity:1.;"/>
<stop offset="1" style="stop-color:#a52a2a;stop-opacity:1.;"/>
</linearGradient>
</defs>
<ellipse fill="url(#l_8)" stroke="#000000" cx="197" cy="-733.0444" rx="24.0958" ry="24.0958"/>
<text text-anchor="middle" x="197" y="-729.3444" font-family="Times,serif" font-size="14.00" fill="#000000">n19</text>
</g>
<!-- n19&#45;&gt;n20 -->
<g id="edge18" class="edge">
<title>n19&#45;&gt;n20</title>
<path fill="none" stroke="#000000" d="M198.1355,-708.6167C198.6171,-698.2571 199.1815,-686.1162 199.6814,-675.3628"/>
<polygon fill="#000000" stroke="#000000" points="203.1861,-675.341 200.1543,-665.1892 196.1936,-675.0159 203.1861,-675.341"/>
</g>
<!-- n18 -->
<g id="node10" class="node">
<title>n18</title>
<defs>
<linearGradient id="l_9" gradientUnits="userSpaceOnUse" x1="160.9824" y1="-811.0923" x2="229.0176" y2="-811.0923" >
<stop offset="0" style="stop-color:#ffe4c4;stop-opacity:1.;"/>
<stop offset="1" style="stop-color:#a52a2a;stop-opacity:1.;"/>
</linearGradient>
</defs>
<polygon fill="url(#l_9)" stroke="#000000" points="195,-829.0923 160.9824,-811.0923 195,-793.0923 229.0176,-811.0923 195,-829.0923"/>
<text text-anchor="middle" x="195" y="-807.3923" font-family="Times,serif" font-size="14.00" fill="#000000">n18</text>
</g>
<!-- n18&#45;&gt;n19 -->
<g id="edge17" class="edge">
<title>n18&#45;&gt;n19</title>
<path fill="none" stroke="#000000" d="M195.4639,-792.9904C195.6596,-785.3519 195.8943,-776.195 196.1205,-767.3643"/>
<polygon fill="#000000" stroke="#000000" points="199.6221,-767.3445 196.3795,-757.2581 192.6244,-767.1651 199.6221,-767.3445"/>
</g>
<!-- n17 -->
<g id="node11" class="node">
<title>n17</title>
<defs>
<linearGradient id="l_10" gradientUnits="userSpaceOnUse" x1="167" y1="-883.0923" x2="221" y2="-883.0923" >
<stop offset="0" style="stop-color:#ffe4c4;stop-opacity:1.;"/>
<stop offset="1" style="stop-color:#a52a2a;stop-opacity:1.;"/>
</linearGradient>
</defs>
<ellipse fill="url(#l_10)" stroke="#000000" cx="194" cy="-883.0923" rx="27" ry="18"/>
<text text-anchor="middle" x="194" y="-879.3923" font-family="Times,serif" font-size="14.00" fill="#000000">n17</text>
</g>
<!-- n17&#45;&gt;n18 -->
<g id="edge16" class="edge">
<title>n17&#45;&gt;n18</title>
<path fill="none" stroke="#000000" d="M194.2523,-864.9236C194.3609,-857.1048 194.4904,-847.7845 194.6108,-839.1144"/>
<polygon fill="#000000" stroke="#000000" points="198.1119,-839.0534 194.7512,-829.0057 191.1126,-838.9561 198.1119,-839.0534"/>
</g>
<!-- n16 -->
<g id="node12" class="node">
<title>n16</title>
<defs>
<linearGradient id="l_11" gradientUnits="userSpaceOnUse" x1="165.4619" y1="-955.0923" x2="220.5381" y2="-955.0923" >
<stop offset="0" style="stop-color:#ffe4c4;stop-opacity:1.;"/>
<stop offset="1" style="stop-color:#a52a2a;stop-opacity:1.;"/>
</linearGradient>
</defs>
<polygon fill="url(#l_11)" stroke="#000000" points="220.5381,-955.0923 206.769,-973.0923 179.231,-973.0923 165.4619,-955.0923 179.231,-937.0923 206.769,-937.0923 220.5381,-955.0923"/>
<text text-anchor="middle" x="193" y="-951.3923" font-family="Times,serif" font-size="14.00" fill="#000000">n16</text>
</g>
<!-- n16&#45;&gt;n17 -->
<g id="edge15" class="edge">
<title>n16&#45;&gt;n17</title>
<path fill="none" stroke="#000000" d="M193.2523,-936.9236C193.3593,-929.2232 193.4865,-920.0666 193.6053,-911.5089"/>
<polygon fill="#000000" stroke="#000000" points="197.1049,-911.5532 193.7443,-901.5055 190.1056,-911.4559 197.1049,-911.5532"/>
</g>
<!-- n15 -->
<g id="node13" class="node">
<title>n15</title>
<defs>
<linearGradient id="l_12" gradientUnits="userSpaceOnUse" x1="144.8083" y1="-1026.3423" x2="241.1917" y2="-1026.3423" >
<stop offset="0" style="stop-color:#ffe4c4;stop-opacity:1.;"/>
<stop offset="1" style="stop-color:#a52a2a;stop-opacity:1.;"/>
</linearGradient>
</defs>
<polygon fill="url(#l_12)" stroke="#000000" points="193,-1009.0923 241.1917,-1043.5923 144.8083,-1043.5923 193,-1009.0923"/>
<text text-anchor="middle" x="193" y="-1028.3923" font-family="Times,serif" font-size="14.00" fill="#000000">n15</text>
</g>
<!-- n15&#45;&gt;n16 -->
<g id="edge14" class="edge">
<title>n15&#45;&gt;n16</title>
<path fill="none" stroke="#000000" d="M193,-1008.9897C193,-1001.016 193,-991.9873 193,-983.6309"/>
<polygon fill="#000000" stroke="#000000" points="196.5001,-983.5357 193,-973.5357 189.5001,-983.5357 196.5001,-983.5357"/>
</g>
<!-- n14 -->
<g id="node14" class="node">
<title>n14</title>
<defs>
<linearGradient id="l_13" gradientUnits="userSpaceOnUse" x1="78.0487" y1="-35.7188" x2="137.9513" y2="-35.7188" >
<stop offset="0" style="stop-color:#ffe4c4;stop-opacity:1.;"/>
<stop offset="1" style="stop-color:#a52a2a;stop-opacity:1.;"/>
</linearGradient>
</defs>
<polygon fill="url(#l_13)" stroke="#000000" points="137.9513,-39.5623 108,-52 78.0487,-39.5623 89.4891,-19.4377 126.5109,-19.4377 137.9513,-39.5623"/>
<text text-anchor="middle" x="108" y="-30.3" font-family="Times,serif" font-size="14.00" fill="#000000">n14</text>
</g>
<!-- n13 -->
<g id="node15" class="node">
<title>n13</title>
<defs>
<linearGradient id="l_14" gradientUnits="userSpaceOnUse" x1="81" y1="-106" x2="135" y2="-106" >
<stop offset="0" style="stop-color:#ffe4c4;stop-opacity:1.;"/>
<stop offset="1" style="stop-color:#a52a2a;stop-opacity:1.;"/>
</linearGradient>
</defs>
<polygon fill="url(#l_14)" stroke="#000000" points="135,-124 81,-124 81,-88 135,-88 135,-124"/>
<text text-anchor="middle" x="108" y="-102.3" font-family="Times,serif" font-size="14.00" fill="#000000">n13</text>
</g>
<!-- n13&#45;&gt;n14 -->
<g id="edge13" class="edge">
<title>n13&#45;&gt;n14</title>
<path fill="none" stroke="#000000" d="M108,-87.8314C108,-80.131 108,-70.9743 108,-62.4166"/>
<polygon fill="#000000" stroke="#000000" points="111.5001,-62.4132 108,-52.4133 104.5001,-62.4133 111.5001,-62.4132"/>
</g>
<!-- n12 -->
<g id="node16" class="node">
<title>n12</title>
<defs>
<linearGradient id="l_15" gradientUnits="userSpaceOnUse" x1="81" y1="-178.8913" x2="135" y2="-178.8913" >
<stop offset="0" style="stop-color:#ffe4c4;stop-opacity:1.;"/>
<stop offset="1" style="stop-color:#a52a2a;stop-opacity:1.;"/>
</linearGradient>
</defs>
<polygon fill="url(#l_15)" stroke="#000000" points="135,-173.9946 129.6523,-189.2228 108,-196 86.3477,-189.2228 81,-173.9946 95.9839,-161.7826 120.0161,-161.7826 135,-173.9946"/>
<text text-anchor="middle" x="108" y="-174.3" font-family="Times,serif" font-size="14.00" fill="#000000">n12</text>
</g>
<!-- n12&#45;&gt;n13 -->
<g id="edge12" class="edge">
<title>n12&#45;&gt;n13</title>
<path fill="none" stroke="#000000" d="M108,-161.6621C108,-153.5229 108,-143.4494 108,-134.1187"/>
<polygon fill="#000000" stroke="#000000" points="111.5001,-134.0423 108,-124.0423 104.5001,-134.0424 111.5001,-134.0423"/>
</g>
<!-- n11 -->
<g id="node17" class="node">
<title>n11</title>
<defs>
<linearGradient id="l_16" gradientUnits="userSpaceOnUse" x1="59.8083" y1="-260.75" x2="156.1917" y2="-260.75" >
<stop offset="0" style="stop-color:#ffe4c4;stop-opacity:1.;"/>
<stop offset="1" style="stop-color:#a52a2a;stop-opacity:1.;"/>
</linearGradient>
</defs>
<polygon fill="url(#l_16)" stroke="#000000" points="108,-278 59.8083,-243.5 156.1917,-243.5 108,-278"/>
<text text-anchor="middle" x="108" y="-251.3" font-family="Times,serif" font-size="14.00" fill="#000000">n11</text>
</g>
<!-- n11&#45;&gt;n12 -->
<g id="edge11" class="edge">
<title>n11&#45;&gt;n12</title>
<path fill="none" stroke="#000000" d="M108,-243.3054C108,-233.5106 108,-219.1207 108,-206.3398"/>
<polygon fill="#000000" stroke="#000000" points="111.5001,-206.1184 108,-196.1185 104.5001,-206.1185 111.5001,-206.1184"/>
</g>
<!-- n10 -->
<g id="node18" class="node">
<title>n10</title>
<defs>
<linearGradient id="l_17" gradientUnits="userSpaceOnUse" x1="81" y1="-332" x2="135" y2="-332" >
<stop offset="0" style="stop-color:#ffe4c4;stop-opacity:1.;"/>
<stop offset="1" style="stop-color:#a52a2a;stop-opacity:1.;"/>
</linearGradient>
</defs>
<polygon fill="url(#l_17)" stroke="#000000" points="135,-350 81,-350 81,-314 135,-314 135,-350"/>
<text text-anchor="middle" x="108" y="-328.3" font-family="Times,serif" font-size="14.00" fill="#000000">n10</text>
</g>
<!-- n10&#45;&gt;n11 -->
<g id="edge10" class="edge">
<title>n10&#45;&gt;n11</title>
<path fill="none" stroke="#000000" d="M108,-313.7521C108,-306.0806 108,-296.9093 108,-288.1197"/>
<polygon fill="#000000" stroke="#000000" points="111.5001,-288.0895 108,-278.0895 104.5001,-288.0895 111.5001,-288.0895"/>
</g>
<!-- n9 -->
<g id="node19" class="node">
<title>n9</title>
<defs>
<linearGradient id="l_18" gradientUnits="userSpaceOnUse" x1="90" y1="-404" x2="126" y2="-404" >
<stop offset="0" style="stop-color:#ffe4c4;stop-opacity:1.;"/>
<stop offset="1" style="stop-color:#a52a2a;stop-opacity:1.;"/>
</linearGradient>
</defs>
<polygon fill="url(#l_18)" stroke="#000000" points="126,-422 90,-422 90,-386 126,-386 126,-422"/>
<text text-anchor="middle" x="108" y="-400.3" font-family="Times,serif" font-size="14.00" fill="#000000">n9</text>
</g>
<!-- n9&#45;&gt;n10 -->
<g id="edge9" class="edge">
<title>n9&#45;&gt;n10</title>
<path fill="none" stroke="#000000" d="M108,-385.8314C108,-378.131 108,-368.9743 108,-360.4166"/>
<polygon fill="#000000" stroke="#000000" points="111.5001,-360.4132 108,-350.4133 104.5001,-360.4133 111.5001,-360.4132"/>
</g>
<!-- n8 -->
<g id="node20" class="node">
<title>n8</title>
<defs>
<linearGradient id="l_19" gradientUnits="userSpaceOnUse" x1="89.5032" y1="-481.4983" x2="128.4968" y2="-481.4983" >
<stop offset="0" style="stop-color:#ffe4c4;stop-opacity:1.;"/>
<stop offset="1" style="stop-color:#a52a2a;stop-opacity:1.;"/>
</linearGradient>
</defs>
<ellipse fill="url(#l_19)" stroke="#000000" cx="109" cy="-481.4983" rx="19.4968" ry="19.4968"/>
<ellipse fill="none" stroke="#000000" cx="109" cy="-481.4983" rx="23.4965" ry="23.4965"/>
<text text-anchor="middle" x="109" y="-477.7983" font-family="Times,serif" font-size="14.00" fill="#000000">n8</text>
</g>
<!-- n8&#45;&gt;n9 -->
<g id="edge8" class="edge">
<title>n8&#45;&gt;n9</title>
<path fill="none" stroke="#000000" d="M108.6945,-457.8251C108.5911,-449.8127 108.4746,-440.7815 108.367,-432.438"/>
<polygon fill="#000000" stroke="#000000" points="111.8658,-432.32 108.237,-422.366 104.8664,-432.4104 111.8658,-432.32"/>
</g>
<!-- n7 -->
<g id="node21" class="node">
<title>n7</title>
<defs>
<linearGradient id="l_20" gradientUnits="userSpaceOnUse" x1="83" y1="-562.9965" x2="137" y2="-562.9965" >
<stop offset="0" style="stop-color:#ffe4c4;stop-opacity:1.;"/>
<stop offset="1" style="stop-color:#a52a2a;stop-opacity:1.;"/>
</linearGradient>
</defs>
<polygon fill="url(#l_20)" stroke="#000000" points="137,-555.5407 137,-570.4524 121.1838,-580.9965 98.8162,-580.9965 83,-570.4524 83,-555.5407 98.8162,-544.9965 121.1838,-544.9965 137,-555.5407"/>
<polygon fill="none" stroke="#000000" points="141,-553.4 141,-572.5931 122.3949,-584.9965 97.6051,-584.9965 79,-572.5931 79,-553.4 97.6051,-540.9965 122.3949,-540.9965 141,-553.4"/>
<text text-anchor="middle" x="110" y="-559.2965" font-family="Times,serif" font-size="14.00" fill="#000000">n7</text>
</g>
<!-- n7&#45;&gt;n8 -->
<g id="edge7" class="edge">
<title>n7&#45;&gt;n8</title>
<path fill="none" stroke="#000000" d="M109.7267,-540.7268C109.6305,-532.8864 109.5201,-523.8881 109.4149,-515.312"/>
<polygon fill="#000000" stroke="#000000" points="112.9129,-515.123 109.2904,-505.1667 105.9135,-515.209 112.9129,-515.123"/>
</g>
<!-- n6 -->
<g id="node22" class="node">
<title>n6</title>
<defs>
<linearGradient id="l_21" gradientUnits="userSpaceOnUse" x1="87" y1="-646.9965" x2="141" y2="-646.9965" >
<stop offset="0" style="stop-color:#ffe4c4;stop-opacity:1.;"/>
<stop offset="1" style="stop-color:#a52a2a;stop-opacity:1.;"/>
</linearGradient>
</defs>
<polygon fill="url(#l_21)" stroke="#000000" points="141,-639.5407 141,-654.4524 125.1838,-664.9965 102.8162,-664.9965 87,-654.4524 87,-639.5407 102.8162,-628.9965 125.1838,-628.9965 141,-639.5407"/>
<polygon fill="none" stroke="#000000" points="145,-637.4 145,-656.5931 126.3949,-668.9965 101.6051,-668.9965 83,-656.5931 83,-637.4 101.6051,-624.9965 126.3949,-624.9965 145,-637.4"/>
<polygon fill="none" stroke="#000000" points="149,-635.2592 149,-658.7339 127.606,-672.9965 100.394,-672.9965 79,-658.7339 79,-635.2592 100.394,-620.9965 127.606,-620.9965 149,-635.2592"/>
<text text-anchor="middle" x="114" y="-643.2965" font-family="Times,serif" font-size="14.00" fill="#000000">n6</text>
</g>
<!-- n6&#45;&gt;n7 -->
<g id="edge6" class="edge">
<title>n6&#45;&gt;n7</title>
<path fill="none" stroke="#000000" d="M112.7563,-620.8789C112.3683,-612.7299 111.9357,-603.6454 111.5303,-595.1338"/>
<polygon fill="#000000" stroke="#000000" points="115.0261,-594.9591 111.0543,-585.1369 108.034,-595.2921 115.0261,-594.9591"/>
</g>
<!-- n5 -->
<g id="node23" class="node">
<title>n5</title>
<defs>
<linearGradient id="l_22" gradientUnits="userSpaceOnUse" x1="88.3504" y1="-733.0444" x2="143.6496" y2="-733.0444" >
<stop offset="0" style="stop-color:#ffe4c4;stop-opacity:1.;"/>
<stop offset="1" style="stop-color:#a52a2a;stop-opacity:1.;"/>
</linearGradient>
</defs>
<polygon fill="url(#l_22)" stroke="#000000" points="99.8521,-715.0444 132.1479,-715.0444 143.6496,-751.0444 88.3504,-751.0444 99.8521,-715.0444"/>
<text text-anchor="middle" x="116" y="-729.3444" font-family="Times,serif" font-size="14.00" fill="#000000">n5</text>
</g>
<!-- n5&#45;&gt;n6 -->
<g id="edge5" class="edge">
<title>n5&#45;&gt;n6</title>
<path fill="none" stroke="#000000" d="M115.5759,-714.7959C115.3621,-705.5991 115.0951,-694.1112 114.8419,-683.2198"/>
<polygon fill="#000000" stroke="#000000" points="118.3372,-682.9705 114.6057,-673.0546 111.3391,-683.1332 118.3372,-682.9705"/>
</g>
<!-- n4 -->
<g id="node24" class="node">
<title>n4</title>
<defs>
<linearGradient id="l_23" gradientUnits="userSpaceOnUse" x1="89" y1="-809.3734" x2="143" y2="-809.3734" >
<stop offset="0" style="stop-color:#ffe4c4;stop-opacity:1.;"/>
<stop offset="1" style="stop-color:#a52a2a;stop-opacity:1.;"/>
</linearGradient>
</defs>
<polygon fill="url(#l_23)" stroke="#000000" points="89,-805.53 116,-793.0923 143,-805.53 142.9748,-825.6546 89.0252,-825.6546 89,-805.53"/>
<text text-anchor="middle" x="116" y="-807.3923" font-family="Times,serif" font-size="14.00" fill="#000000">n4</text>
</g>
<!-- n4&#45;&gt;n5 -->
<g id="edge4" class="edge">
<title>n4&#45;&gt;n5</title>
<path fill="none" stroke="#000000" d="M116,-792.9904C116,-783.5337 116,-771.7499 116,-761.1388"/>
<polygon fill="#000000" stroke="#000000" points="119.5001,-761.0481 116,-751.0482 112.5001,-761.0482 119.5001,-761.0481"/>
</g>
<!-- n3 -->
<g id="node25" class="node">
<title>n3</title>
<defs>
<linearGradient id="l_24" gradientUnits="userSpaceOnUse" x1="88.3504" y1="-883.0923" x2="143.6496" y2="-883.0923" >
<stop offset="0" style="stop-color:#ffe4c4;stop-opacity:1.;"/>
<stop offset="1" style="stop-color:#a52a2a;stop-opacity:1.;"/>
</linearGradient>
</defs>
<polygon fill="url(#l_24)" stroke="#000000" points="116,-901.0923 88.3504,-883.0923 116,-865.0923 143.6496,-883.0923 116,-901.0923"/>
<polyline fill="none" stroke="#000000" points="97.5669,-889.0923 97.5669,-877.0923 "/>
<polyline fill="none" stroke="#000000" points="106.7835,-871.0923 125.2165,-871.0923 "/>
<polyline fill="none" stroke="#000000" points="134.4331,-877.0923 134.4331,-889.0923 "/>
<polyline fill="none" stroke="#000000" points="125.2165,-895.0923 106.7835,-895.0923 "/>
<text text-anchor="middle" x="116" y="-879.3923" font-family="Times,serif" font-size="14.00" fill="#000000">n3</text>
</g>
<!-- n3&#45;&gt;n4 -->
<g id="edge3" class="edge">
<title>n3&#45;&gt;n4</title>
<path fill="none" stroke="#000000" d="M116,-864.9236C116,-856.2065 116,-845.6232 116,-836.1552"/>
<polygon fill="#000000" stroke="#000000" points="119.5001,-836.0982 116,-826.0982 112.5001,-836.0982 119.5001,-836.0982"/>
</g>
<!-- n2 -->
<g id="node26" class="node">
<title>n2</title>
<defs>
<linearGradient id="l_25" gradientUnits="userSpaceOnUse" x1="93" y1="-955.0923" x2="129" y2="-955.0923" >
<stop offset="0" style="stop-color:#ffe4c4;stop-opacity:1.;"/>
<stop offset="1" style="stop-color:#a52a2a;stop-opacity:1.;"/>
</linearGradient>
</defs>
<polygon fill="url(#l_25)" stroke="#000000" points="129,-973.0923 93,-973.0923 93,-937.0923 129,-937.0923 129,-973.0923"/>
<polyline fill="none" stroke="#000000" points="105,-973.0923 93,-961.0923 "/>
<polyline fill="none" stroke="#000000" points="93,-949.0923 105,-937.0923 "/>
<polyline fill="none" stroke="#000000" points="117,-937.0923 129,-949.0923 "/>
<polyline fill="none" stroke="#000000" points="129,-961.0923 117,-973.0923 "/>
<text text-anchor="middle" x="111" y="-951.3923" font-family="Times,serif" font-size="14.00" fill="#000000">n2</text>
</g>
<!-- n2&#45;&gt;n3 -->
<g id="edge2" class="edge">
<title>n2&#45;&gt;n3</title>
<path fill="none" stroke="#000000" d="M112.2617,-936.9236C112.8129,-928.9863 113.4716,-919.5018 114.0814,-910.7207"/>
<polygon fill="#000000" stroke="#000000" points="117.5892,-910.7285 114.7904,-900.51 110.606,-910.2435 117.5892,-910.7285"/>
</g>
<!-- n1 -->
<g id="node27" class="node">
<title>n1</title>
<defs>
<linearGradient id="l_26" gradientUnits="userSpaceOnUse" x1="87.5035" y1="-1032.0923" x2="126.4965" y2="-1032.0923" >
<stop offset="0" style="stop-color:#ffe4c4;stop-opacity:1.;"/>
<stop offset="1" style="stop-color:#a52a2a;stop-opacity:1.;"/>
</linearGradient>
</defs>
<ellipse fill="url(#l_26)" stroke="#000000" cx="107" cy="-1032.0923" rx="19.4965" ry="19.4965"/>
<polyline fill="none" stroke="#000000" points="119.8962,-1046.716 94.1038,-1046.716 "/>
<polyline fill="none" stroke="#000000" points="119.8962,-1017.4686 94.1038,-1017.4686 "/>
<text text-anchor="middle" x="107" y="-1028.3923" font-family="Times,serif" font-size="14.00" fill="#000000">n1</text>
</g>
<!-- n1&#45;&gt;n2 -->
<g id="edge1" class="edge">
<title>n1&#45;&gt;n2</title>
<path fill="none" stroke="#000000" d="M108.0301,-1012.2629C108.4842,-1003.5215 109.0263,-993.0858 109.5223,-983.5374"/>
<polygon fill="#000000" stroke="#000000" points="113.032,-983.4398 110.0556,-973.2716 106.0415,-983.0766 113.032,-983.4398"/>
</g>
<!-- x1 -->
<g id="node28" class="node">
<title>x1</title>
<defs>
<linearGradient id="l_27" gradientUnits="userSpaceOnUse" x1="16" y1="-1032.0923" x2="70" y2="-1032.0923" >
<stop offset="0" style="stop-color:#ffe4c4;stop-opacity:1.;"/>
<stop offset="1" style="stop-color:#a52a2a;stop-opacity:1.;"/>
</linearGradient>
</defs>
<polygon fill="url(#l_27)" stroke="#000000" points="64,-1050.0923 16,-1050.0923 16,-1014.0923 70,-1014.0923 70,-1044.0923 64,-1050.0923"/>
<polyline fill="none" stroke="#000000" points="64,-1050.0923 64,-1044.0923 "/>
<polyline fill="none" stroke="#000000" points="70,-1044.0923 64,-1044.0923 "/>
<text text-anchor="middle" x="43" y="-1028.3923" font-family="Times,serif" font-size="14.00" fill="#000000">x1</text>
</g>
<!-- x2 -->
<g id="node29" class="node">
<title>x2</title>
<defs>
<linearGradient id="l_28" gradientUnits="userSpaceOnUse" x1="16" y1="-957.0923" x2="70" y2="-957.0923" >
<stop offset="0" style="stop-color:#ffe4c4;stop-opacity:1.;"/>
<stop offset="1" style="stop-color:#a52a2a;stop-opacity:1.;"/>
</linearGradient>
</defs>
<polygon fill="url(#l_28)" stroke="#000000" points="70,-973.0923 28,-973.0923 28,-977.0923 16,-977.0923 16,-937.0923 70,-937.0923 70,-973.0923"/>
<polyline fill="none" stroke="#000000" points="16,-973.0923 28,-973.0923 "/>
<text text-anchor="middle" x="43" y="-951.3923" font-family="Times,serif" font-size="14.00" fill="#000000">x2</text>
</g>
<!-- x1&#45;&gt;x2 -->
<g id="edge26" class="edge">
<title>x1&#45;&gt;x2</title>
<path fill="none" stroke="#000000" d="M43,-1013.8443C43,-1004.7344 43,-993.5096 43,-983.3205"/>
<polygon fill="#000000" stroke="#000000" points="46.5001,-983.2092 43,-973.2092 39.5001,-983.2092 46.5001,-983.2092"/>
</g>
<!-- x3 -->
<g id="node30" class="node">
<title>x3</title>
<defs>
<linearGradient id="l_29" gradientUnits="userSpaceOnUse" x1="16" y1="-885.0923" x2="70" y2="-885.0923" >
<stop offset="0" style="stop-color:#ffe4c4;stop-opacity:1.;"/>
<stop offset="1" style="stop-color:#a52a2a;stop-opacity:1.;"/>
</linearGradient>
</defs>
<polygon fill="url(#l_29)" stroke="#000000" points="70,-901.0923 67,-905.0923 46,-905.0923 43,-901.0923 16,-901.0923 16,-865.0923 70,-865.0923 70,-901.0923"/>
<text text-anchor="middle" x="43" y="-879.3923" font-family="Times,serif" font-size="14.00" fill="#000000">x3</text>
</g>
<!-- x2&#45;&gt;x3 -->
<g id="edge27" class="edge">
<title>x2&#45;&gt;x3</title>
<path fill="none" stroke="#000000" d="M43,-936.9236C43,-929.2232 43,-920.0666 43,-911.5089"/>
<polygon fill="#000000" stroke="#000000" points="46.5001,-911.5055 43,-901.5055 39.5001,-911.5056 46.5001,-911.5055"/>
</g>
<!-- x4 -->
<g id="node31" class="node">
<title>x4</title>
<defs>
<linearGradient id="l_30" gradientUnits="userSpaceOnUse" x1="16" y1="-811.0923" x2="70" y2="-811.0923" >
<stop offset="0" style="stop-color:#ffe4c4;stop-opacity:1.;"/>
<stop offset="1" style="stop-color:#a52a2a;stop-opacity:1.;"/>
</linearGradient>
</defs>
<polygon fill="url(#l_30)" stroke="#000000" points="70,-829.0923 20,-829.0923 16,-825.0923 16,-793.0923 66,-793.0923 70,-797.0923 70,-829.0923"/>
<polyline fill="none" stroke="#000000" points="66,-825.0923 16,-825.0923 "/>
<polyline fill="none" stroke="#000000" points="66,-825.0923 66,-793.0923 "/>
<polyline fill="none" stroke="#000000" points="66,-825.0923 70,-829.0923 "/>
<text text-anchor="middle" x="43" y="-807.3923" font-family="Times,serif" font-size="14.00" fill="#000000">x4</text>
</g>
<!-- x3&#45;&gt;x4 -->
<g id="edge28" class="edge">
<title>x3&#45;&gt;x4</title>
<path fill="none" stroke="#000000" d="M43,-864.9236C43,-857.2232 43,-848.0666 43,-839.5089"/>
<polygon fill="#000000" stroke="#000000" points="46.5001,-839.5055 43,-829.5055 39.5001,-839.5056 46.5001,-839.5055"/>
</g>
<!-- x5 -->
<g id="node32" class="node">
<title>x5</title>
<defs>
<linearGradient id="l_31" gradientUnits="userSpaceOnUse" x1="12" y1="-733.0444" x2="70" y2="-733.0444" >
<stop offset="0" style="stop-color:#ffe4c4;stop-opacity:1.;"/>
<stop offset="1" style="stop-color:#a52a2a;stop-opacity:1.;"/>
</linearGradient>
</defs>
<polygon fill="url(#l_31)" stroke="#000000" points="70,-751.0444 16,-751.0444 16,-747.0444 12,-747.0444 12,-743.0444 16,-743.0444 16,-723.0444 12,-723.0444 12,-719.0444 16,-719.0444 16,-715.0444 70,-715.0444 70,-751.0444"/>
<polyline fill="none" stroke="#000000" points="16,-747.0444 20,-747.0444 20,-743.0444 16,-743.0444 "/>
<polyline fill="none" stroke="#000000" points="16,-723.0444 20,-723.0444 20,-719.0444 16,-719.0444 "/>
<text text-anchor="middle" x="43" y="-729.3444" font-family="Times,serif" font-size="14.00" fill="#000000">x5</text>
</g>
<!-- x4&#45;&gt;x5 -->
<g id="edge29" class="edge">
<title>x4&#45;&gt;x5</title>
<path fill="none" stroke="#000000" d="M43,-792.9904C43,-783.5337 43,-771.7499 43,-761.1388"/>
<polygon fill="#000000" stroke="#000000" points="46.5001,-761.0481 43,-751.0482 39.5001,-761.0482 46.5001,-761.0481"/>
</g>
</g>
</svg>
