<?xml version="1.0" encoding="UTF-8" standalone="no"?>
<!DOCTYPE svg PUBLIC "-//W3C//DTD SVG 1.1//EN"
 "http://www.w3.org/Graphics/SVG/1.1/DTD/svg11.dtd">
<!-- Generated by graphviz version 2.41.20170129.2353 (20170129.2353)
 -->
<!-- Title: G Pages: 1 -->
<svg width="454pt" height="278pt"
 viewBox="0.00 0.00 454.30 278.44" xmlns="http://www.w3.org/2000/svg" xmlns:xlink="http://www.w3.org/1999/xlink">
<g id="graph0" class="graph" transform="scale(1 1) rotate(0) translate(4 274.4386)">
<title>G</title>
<polygon fill="#ffffff" stroke="transparent" points="-4,4 -4,-274.4386 450.3036,-274.4386 450.3036,4 -4,4"/>
<!-- a -->
<g id="node1" class="node">
<title>a</title>
<polygon fill="#ffff00" stroke="transparent" points="8.5,-42.4386 8.5,-63.4386 41.5,-63.4386 41.5,-42.4386 8.5,-42.4386"/>
<polygon fill="none" stroke="#000000" points="8.5,-42.4386 8.5,-63.4386 41.5,-63.4386 41.5,-42.4386 8.5,-42.4386"/>
<text text-anchor="start" x="11.5" y="-49.2386" font-family="Times,serif" font-size="14.00" fill="#000000">class</text>
<polygon fill="#add8e6" stroke="transparent" points="41.5,-42.4386 41.5,-63.4386 93.5,-63.4386 93.5,-42.4386 41.5,-42.4386"/>
<polygon fill="none" stroke="#000000" points="41.5,-42.4386 41.5,-63.4386 93.5,-63.4386 93.5,-42.4386 41.5,-42.4386"/>
<text text-anchor="start" x="44.5" y="-49.2386" font-family="Times,serif" font-size="14.00" fill="#000000">qualifier</text>
</g>
<!-- b -->
<g id="node2" class="node">
<title>b</title>
<g id="a_node2"><a xlink:href="http://www.graphviz.org/content/node-shapes" xlink:title="&lt;TABLE&gt;">
<ellipse fill="#d3d3d3" stroke="#000000" cx="341.6518" cy="-83.4386" rx="104.8038" ry="83.3772"/>
<g id="a_node2_0"><a xlink:href="http://www.graphviz.org/content/node-shapes#html" xlink:title="&lt;TABLE&gt;">
<polygon fill="#ffe4c4" stroke="transparent" points="275.6518,-28.4386 275.6518,-138.4386 407.6518,-138.4386 407.6518,-28.4386 275.6518,-28.4386"/>
<g id="a_node2_1"><a xlink:href="http://go/wiki/Elephant" xlink:title="&lt;TABLE&gt;">
<polygon fill="#ffe4c4" stroke="transparent" points="278.6518,-114.4386 278.6518,-135.4386 375.6518,-135.4386 375.6518,-114.4386 278.6518,-114.4386"/>
<polygon fill="none" stroke="#000000" points="278.6518,-114.4386 278.6518,-135.4386 375.6518,-135.4386 375.6518,-114.4386 278.6518,-114.4386"/>
<text text-anchor="start" x="304.1518" y="-121.2386" font-family="Times,serif" font-size="14.00" fill="#000000">elephant</text>
</a>
</g>
<polygon fill="#7fff00" stroke="transparent" points="377.6518,-76.4386 377.6518,-135.4386 404.6518,-135.4386 404.6518,-76.4386 377.6518,-76.4386"/>
<polygon fill="none" stroke="#000000" points="377.6518,-76.4386 377.6518,-135.4386 404.6518,-135.4386 404.6518,-76.4386 377.6518,-76.4386"/>
<text text-anchor="start" x="380.6518" y="-83.2386" font-family="Times,serif" font-size="14.00" fill="#000000">two</text>
<polygon fill="none" stroke="#000000" points="278.6518,-31.4386 278.6518,-112.4386 323.6518,-112.4386 323.6518,-31.4386 278.6518,-31.4386"/>
<g id="a_node2_2"><a xlink:href="http://go/wiki/Grey" xlink:title="&lt;TABLE&gt;">
<polygon fill="#c0c0c0" stroke="transparent" points="281.6518,-34.4386 281.6518,-109.4386 320.6518,-109.4386 320.6518,-34.4386 281.6518,-34.4386"/>
<g id="a_node2_3"><a xlink:href="http://go/wiki/Sweet_corn" xlink:title="&lt;TABLE&gt;">
<polygon fill="none" stroke="#000000" points="284.6518,-84.4386 284.6518,-106.4386 317.6518,-106.4386 317.6518,-84.4386 284.6518,-84.4386"/>
<text text-anchor="start" x="288.6518" y="-91.7386" font-family="Times,serif" font-size="14.00" fill="#000000">corn</text>
</a>
</g>
<polygon fill="#ffff00" stroke="transparent" points="284.6518,-60.4386 284.6518,-82.4386 317.6518,-82.4386 317.6518,-60.4386 284.6518,-60.4386"/>
<polygon fill="none" stroke="#000000" points="284.6518,-60.4386 284.6518,-82.4386 317.6518,-82.4386 317.6518,-60.4386 284.6518,-60.4386"/>
<text text-anchor="start" x="297.6518" y="-67.7386" font-family="Times,serif" font-size="14.00" fill="#000000">c</text>
<g id="a_node2_4"><a xlink:href="http://go/wiki/F" xlink:title="&lt;TABLE&gt;">
<polygon fill="none" stroke="#000000" points="284.6518,-37.4386 284.6518,-58.4386 317.6518,-58.4386 317.6518,-37.4386 284.6518,-37.4386"/>
<text text-anchor="start" x="298.6518" y="-44.2386" font-family="Times,serif" font-size="14.00" fill="#000000">f</text>
</a>
</g>
<polygon fill="none" stroke="#000000" points="281.6518,-34.4386 281.6518,-109.4386 320.6518,-109.4386 320.6518,-34.4386 281.6518,-34.4386"/>
</a>
</g>
<polygon fill="#ffffff" stroke="transparent" points="325.6518,-76.4386 325.6518,-112.4386 375.6518,-112.4386 375.6518,-76.4386 325.6518,-76.4386"/>
<polygon fill="none" stroke="#000000" points="325.6518,-76.4386 325.6518,-112.4386 375.6518,-112.4386 375.6518,-76.4386 325.6518,-76.4386"/>
<text text-anchor="start" x="328.6518" y="-90.7386" font-family="Times,serif" font-size="14.00" fill="#000000">penguin</text>
<polygon fill="none" stroke="#000000" stroke-width="4" points="327.6518,-33.4386 327.6518,-72.4386 402.6518,-72.4386 402.6518,-33.4386 327.6518,-33.4386"/>
<text text-anchor="start" x="391.6518" y="-49.2386" font-family="Times,serif" font-size="14.00" fill="#000000">4</text>
<polygon fill="none" stroke="#000000" points="275.6518,-28.4386 275.6518,-138.4386 407.6518,-138.4386 407.6518,-28.4386 275.6518,-28.4386"/>
</a>
</g>
</a>
</g>
</g>
<!-- a&#45;&gt;b -->
<g id="edge1" class="edge">
<title>a:here&#45;&gt;b:there</title>
<path fill="none" stroke="#000000" d="M105.6432,-51.6426C173.397,-43.9081 341.2645,16.7659 363.2607,-21.6763"/>
<polygon fill="#000000" stroke="#000000" points="105.4743,-51.6536 99.7488,-56.0375 93.5,-52.4386 99.2255,-48.0547 105.4743,-51.6536"/>
<polygon fill="#000000" stroke="#000000" points="359.8732,-22.5584 365.6518,-31.4386 366.6722,-20.893 359.8732,-22.5584"/>
</g>
<!-- c -->
<g id="node3" class="node">
<title>c</title>
<text text-anchor="start" x="312.1518" y="-239.7386" font-family="Times,serif" font-size="14.00" fill="#000000">long line 1</text>
<text text-anchor="start" x="312.1518" y="-224.7386" font-family="Times,serif" font-size="14.00" fill="#000000">line 2</text>
<text text-anchor="start" x="340.1518" y="-209.7386" font-family="Times,serif" font-size="14.00" fill="#000000">line 3</text>
</g>
<!-- c&#45;&gt;b -->
<g id="edge2" class="edge">
<title>c&#45;&gt;b</title>
<path fill="none" stroke="#000000" d="M341.6518,-201.552C341.6518,-193.45 341.6518,-185.348 341.6518,-177.246"/>
<polygon fill="#000000" stroke="#000000" points="345.1519,-176.9835 341.6518,-166.9835 338.1519,-176.9836 345.1519,-176.9835"/>
</g>
<!-- d -->
<g id="node4" class="node">
<title>d</title>
<polygon fill="none" stroke="#000000" points="50.5,-251.4386 20.705,-216.9386 80.295,-216.9386 50.5,-251.4386"/>
<text text-anchor="middle" x="50.5" y="-224.7386" font-family="Times,serif" font-size="14.00" fill="#000000">d</text>
</g>
<!-- d&#45;&gt;c -->
<g id="edge3" class="edge">
<title>d&#45;&gt;c</title>
<path fill="none" stroke="#000000" d="M70.512,-228.4386C116.1497,-228.4386 228.9754,-228.4386 293.7913,-228.4386"/>
<polygon fill="#000000" stroke="#000000" points="294.1501,-231.9387 304.15,-228.4386 294.15,-224.9387 294.1501,-231.9387"/>
<polygon fill="#ff0000" stroke="transparent" points="122,-231.4386 122,-267.4386 132,-267.4386 132,-231.4386 122,-231.4386"/>
<polygon fill="none" stroke="#000000" points="122,-231.4386 122,-267.4386 132,-267.4386 132,-231.4386 122,-231.4386"/>
<text text-anchor="start" x="125" y="-245.7386" font-family="Times,serif" font-size="14.00" fill="#000000"> </text>
<polygon fill="none" stroke="#000000" points="134,-231.4386 134,-267.4386 204,-267.4386 204,-231.4386 134,-231.4386"/>
<text text-anchor="start" x="137" y="-253.2386" font-family="Times,serif" font-size="14.00" fill="#000000">Edge labels</text>
<text text-anchor="start" x="158" y="-238.2386" font-family="Times,serif" font-size="14.00" fill="#000000">also</text>
<polygon fill="#0000ff" stroke="transparent" points="206,-231.4386 206,-267.4386 216,-267.4386 216,-231.4386 206,-231.4386"/>
<polygon fill="none" stroke="#000000" points="206,-231.4386 206,-267.4386 216,-267.4386 216,-231.4386 206,-231.4386"/>
<text text-anchor="start" x="209" y="-245.7386" font-family="Times,serif" font-size="14.00" fill="#000000"> </text>
<polygon fill="none" stroke="#000000" points="119,-228.4386 119,-270.4386 219,-270.4386 219,-228.4386 119,-228.4386"/>
</g>
</g>
</svg>
