<?xml version="1.0" encoding="UTF-8" standalone="no"?>
<?xml-stylesheet href="stylesheet" type="text/css"?>
<!DOCTYPE svg PUBLIC "-//W3C//DTD SVG 1.1//EN"
 "http://www.w3.org/Graphics/SVG/1.1/DTD/svg11.dtd">
<!-- Generated by graphviz version 2.41.20170129.2353 (20170129.2353)
 -->
<!-- Title: G Pages: 1 -->
<svg width="501pt" height="191pt"
 viewBox="0.00 0.00 500.84 191.00" xmlns="http://www.w3.org/2000/svg" xmlns:xlink="http://www.w3.org/1999/xlink">
<g id="graph0" class="graph" transform="scale(1 1) rotate(0) translate(4 187)">
<title>G</title>
<g id="a_graph0"><a xlink:href="http://www.graphviz.org/doc/info/output.html" xlink:title="output">
<polygon fill="#ffffff" stroke="transparent" points="-4,4 -4,-187 496.8406,-187 496.8406,4 -4,4"/>
<text text-anchor="middle" x="246.4203" y="-7.8" font-family="Times,serif" font-size="14.00" fill="#000000">output</text>
</a>
</g>
<g id="clust1" class="cluster">
<title>cluster0</title>
<g id="a_clust1"><a xlink:href="http://www.graphviz.org/doc/info/arrows.html" xlink:title="arrows">
<polygon fill="#ffff00" stroke="#000000" points="96.8406,-31 96.8406,-106 284.8406,-106 284.8406,-31 96.8406,-31"/>
<text text-anchor="middle" x="190.8406" y="-90.8" font-family="Times,serif" font-size="14.00" fill="#000000">arrows</text>
</a>
</g>
</g>
<!-- lang -->
<g id="node1" class="node">
<title>lang</title>
<g id="a_node1"><a xlink:href="http://www.graphviz.org/doc/info/lang.html" xlink:title="lang">
<ellipse fill="none" stroke="#000000" cx="230.8406" cy="-165" rx="27" ry="18"/>
<text text-anchor="middle" x="230.8406" y="-161.3" font-family="Times,serif" font-size="14.00" fill="#000000">lang</text>
</a>
</g>
</g>
<!-- colors -->
<g id="node2" class="node">
<title>colors</title>
<g id="a_node2"><a xlink:href="http://www.graphviz.org/doc/info/output.html" xlink:title="&lt;TABLE&gt;">
<ellipse fill="#add8e6" stroke="#000000" cx="43.8406" cy="-57" rx="43.6818" ry="25"/>
<g id="a_node2_0"><a xlink:href="http://www.graphviz.org/doc/info/colors.html" xlink:title="&lt;TABLE&gt;">
<polygon fill="#00ff00" stroke="transparent" points="23.8406,-46 23.8406,-67 63.8406,-67 63.8406,-46 23.8406,-46"/>
<polygon fill="none" stroke="#000000" points="23.8406,-46 23.8406,-67 63.8406,-67 63.8406,-46 23.8406,-46"/>
<text text-anchor="start" x="26.8406" y="-52.8" font-family="Times,serif" font-size="14.00" fill="#000000">colors</text>
<polygon fill="none" stroke="#000000" points="20.8406,-43.5 20.8406,-70.5 66.8406,-70.5 66.8406,-43.5 20.8406,-43.5"/>
</a>
</g>
</a>
</g>
</g>
<!-- lang&#45;&gt;colors -->
<g id="edge2" class="edge">
<title>lang&#45;&gt;colors</title>
<g id="a_edge2"><a xlink:href="lang->colors" xlink:title="self">
<path fill="none" stroke="#000000" d="M205.985,-157.572C177.2002,-148.2703 129.0994,-130.5253 92.8406,-106 84.7907,-100.5551 76.942,-93.6674 69.9691,-86.7896"/>
<polygon fill="#000000" stroke="#000000" points="72.2606,-84.1257 62.7785,-79.3992 67.2435,-89.0072 72.2606,-84.1257"/>
</a>
</g>
</g>
<!-- command -->
<g id="node3" class="node">
<title>command</title>
<g id="a_node3"><a xlink:href="http://www.graphviz.org/doc/info/command.html" xlink:title="command">
<ellipse fill="#c0c0c0" stroke="#000000" cx="230.8406" cy="-57" rx="46.2923" ry="18"/>
<text text-anchor="middle" x="230.8406" y="-53.3" font-family="Times,serif" font-size="14.00" fill="#000000">command</text>
</a>
</g>
</g>
<!-- lang&#45;&gt;command -->
<g id="edge1" class="edge">
<title>lang&#45;&gt;command</title>
<g id="a_edge1"><a xlink:href="http://www.graphviz.org/doc/info/shapes.html">
<path fill="none" stroke="#000000" d="M230.8406,-146.6793C230.8406,-129.821 230.8406,-104.5651 230.8406,-85.147"/>
<polygon fill="#000000" stroke="#000000" points="234.3407,-85.0501 230.8406,-75.0502 227.3407,-85.0502 234.3407,-85.0501"/>
</a>
</g>
</g>
<!-- size -->
<g id="node5" class="node">
<title>size</title>
<ellipse fill="none" stroke="#000000" cx="321.8406" cy="-57" rx="27" ry="18"/>
<text text-anchor="middle" x="321.8406" y="-53.3" font-family="Times,serif" font-size="14.00" fill="#000000">size</text>
</g>
<!-- lang&#45;&gt;size -->
<g id="edge3" class="edge">
<title>lang&#45;&gt;size</title>
<g id="a_edge3"><a xlink:href="headurl" xlink:title="headurl">
<path fill="none" stroke="#000000" d="M246.9193,-150.2019C259.042,-138.6861 275.7583,-122.0207 288.8406,-106 294.8736,-98.612 300.8784,-90.1251 306.0792,-82.3128"/>
<polygon fill="#000000" stroke="#000000" points="309.0498,-84.1648 311.5682,-73.8736 303.1818,-80.3481 309.0498,-84.1648"/>
</a>
</g>
<g id="a_edge3&#45;headlabel"><a xlink:href="headsize" xlink:title="size">
<text text-anchor="middle" x="300.5682" y="-77.6736" font-family="Times,serif" font-size="14.00" fill="#000000">size</text>
</a>
</g>
</g>
<!-- name -->
<g id="node4" class="node">
<title>name</title>
<g id="a_node4"><a xlink:href="G name" xlink:title="name">
<ellipse fill="none" stroke="#000000" cx="135.8406" cy="-57" rx="30.5947" ry="18"/>
<text text-anchor="middle" x="135.8406" y="-53.3" font-family="Times,serif" font-size="14.00" fill="#000000">name</text>
</a>
</g>
</g>
<!-- word -->
<g id="node6" class="node">
<title>word</title>
<ellipse fill="none" stroke="#000000" cx="372.8406" cy="-165" rx="28.6953" ry="18"/>
<text text-anchor="middle" x="372.8406" y="-161.3" font-family="Times,serif" font-size="14.00" fill="#000000">word</text>
</g>
<!-- word&#45;&gt;size -->
<g id="edge4" class="edge">
<title>word&#45;&gt;size</title>
<g id="a_edge4"><a xlink:href="tailurl">
<path fill="none" stroke="#000000" d="M364.6466,-147.6479C356.4678,-130.3281 343.7917,-103.4847 334.3536,-83.4981"/>
<polygon fill="#000000" stroke="#000000" points="337.4493,-81.857 330.0143,-74.309 331.1196,-84.846 337.4493,-81.857"/>
</a>
</g>
<g id="a_edge4&#45;taillabel"><a xlink:href="tailsize" xlink:title="size">
<text text-anchor="middle" x="353.6466" y="-136.4479" font-family="Times,serif" font-size="14.00" fill="#000000">size</text>
</a>
</g>
</g>
<!-- garf -->
<g id="node7" class="node">
<title>garf</title>
<ellipse fill="none" stroke="#000000" cx="393.8406" cy="-57" rx="27" ry="18"/>
<text text-anchor="middle" x="393.8406" y="-53.3" font-family="Times,serif" font-size="14.00" fill="#000000">garf</text>
</g>
<!-- word&#45;&gt;garf -->
<g id="edge5" class="edge">
<title>word&#45;&gt;garf</title>
<g id="a_edge5"><a xlink:href="labelurl" xlink:title="garf">
<path fill="none" stroke="#000000" d="M376.403,-146.6793C379.6962,-129.7429 384.6374,-104.3311 388.42,-84.8777"/>
<polygon fill="#000000" stroke="#000000" points="391.8577,-85.5344 390.3309,-75.0502 384.9864,-84.1982 391.8577,-85.5344"/>
</a>
</g>
<g id="a_edge5&#45;label"><a xlink:href="garf" xlink:title="garf">
<text text-anchor="middle" x="392.8406" y="-117.8" font-family="Times,serif" font-size="14.00" fill="#000000">garf</text>
</a>
</g>
</g>
<!-- line -->
<g id="node8" class="node">
<title>line</title>
<ellipse fill="none" stroke="#000000" cx="465.8406" cy="-165" rx="27" ry="18"/>
<text text-anchor="middle" x="465.8406" y="-161.3" font-family="Times,serif" font-size="14.00" fill="#000000">line</text>
</g>
<!-- all -->
<g id="node9" class="node">
<title>all</title>
<ellipse fill="none" stroke="#000000" cx="465.8406" cy="-57" rx="27" ry="18"/>
<text text-anchor="middle" x="465.8406" y="-53.3" font-family="Times,serif" font-size="14.00" fill="#000000">all</text>
</g>
<!-- line&#45;&gt;all -->
<g id="edge6" class="edge">
<title>line&#45;&gt;all</title>
<g id="a_edge6"><a xlink:href="labelurl" xlink:title="edgetooltip">
<path fill="none" stroke="#000000" d="M465.8406,-146.6793C465.8406,-129.821 465.8406,-104.5651 465.8406,-85.147"/>
<polygon fill="#000000" stroke="#000000" points="469.3407,-85.0501 465.8406,-75.0502 462.3407,-85.0502 469.3407,-85.0501"/>
</a>
</g>
<g id="a_edge6&#45;label"><a xlink:href="garf" xlink:title="garf">
<text text-anchor="middle" x="476.8406" y="-117.8" font-family="Times,serif" font-size="14.00" fill="#000000">garf</text>
</a>
</g>
<g id="a_edge6&#45;headlabel"><a xlink:href="headURL" xlink:title="headtooltip">
<text text-anchor="middle" x="439.8406" y="-78.8502" font-family="Times,serif" font-size="14.00" fill="#000000">headlabel</text>
</a>
</g>
<g id="a_edge6&#45;taillabel"><a xlink:href="tailURL" xlink:title="tailtooltip">
<text text-anchor="middle" x="443.8406" y="-135.4793" font-family="Times,serif" font-size="14.00" fill="#000000">taillabel</text>
</a>
</g>
</g>
</g>
</svg>
